# Blender 4.5.4 LTS
# www.blender.org
mtllib exitdoor.mtl
o Cube
v -1.639094 0.699764 1.871908
v -1.639094 7.649201 1.871908
v 1.639094 0.699764 1.871908
v 1.639094 7.649201 1.871908
v -1.871908 0.466951 -0.277866
v -1.871908 7.882015 -0.277866
v 1.871908 0.466951 -0.277866
v 1.871908 7.882015 -0.277866
v -1.871908 0.466951 1.871908
v -1.871908 7.882015 1.871908
v 1.871908 7.882015 1.871908
v 1.871908 0.466951 1.871908
v -1.347112 0.991747 1.295841
v -1.347112 7.357219 1.295841
v 1.347112 7.357219 1.295841
v 1.347112 0.991747 1.295841
v -1.639094 0.699764 1.295841
v -1.639094 7.649201 1.295841
v 1.639094 7.649201 1.295841
v 1.639094 0.699764 1.295841
v -1.347112 0.991747 0.952162
v -1.347112 7.357219 0.952162
v 1.347112 7.357219 0.952162
v 1.347112 0.991747 0.952162
vn 1.0000 -0.0000 -0.0000
vn -0.0000 1.0000 -0.0000
vn -0.0000 -1.0000 -0.0000
vn -1.0000 -0.0000 -0.0000
vn -0.0000 -0.0000 1.0000
vt 0.375000 0.606445
vt 0.625000 0.606445
vt 0.625000 0.750000
vt 0.375000 0.750000
vt 0.382849 0.984453
vt 0.382849 0.765547
vt 0.125000 0.606445
vt 0.125000 0.750000
vt 0.875000 0.606445
vt 0.875000 0.750000
vt 0.375000 0.000000
vt 0.625000 0.000000
vt 0.625000 0.143555
vt 0.375000 0.143555
vt 0.617151 0.984453
vt 0.625000 1.000000
vt 0.375000 1.000000
vt 0.617151 0.765547
vt 0.607306 0.785044
vt 0.607306 0.964956
vt 0.392694 0.964956
vt 0.392694 0.785044
s 0
usemtl greybody
f 7/1/1 8/2/1 11/3/1 12/4/1
f 5/7/3 7/1/3 12/4/3 9/8/3
f 8/2/2 6/9/2 10/10/2 11/3/2
f 9/11/4 10/12/4 6/13/4 5/14/4
f 1/5/5 2/15/5 10/16/5 9/17/5
f 4/18/5 3/6/5 12/4/5 11/3/5
f 3/6/5 1/5/5 9/17/5 12/4/5
f 2/15/5 4/18/5 11/3/5 10/16/5
f 15/19/3 14/20/3 22/20/3 23/19/3
f 13/21/5 14/20/5 18/15/5 17/5/5
f 15/19/5 16/22/5 20/6/5 19/18/5
f 16/22/5 13/21/5 17/5/5 20/6/5
f 14/20/5 15/19/5 19/18/5 18/15/5
f 16/22/4 15/19/4 23/19/4 24/22/4
f 13/21/2 16/22/2 24/22/2 21/21/2
f 14/20/1 13/21/1 21/21/1 22/20/1
usemtl darkgrey
f 1/5/2 3/6/2 20/6/2 17/5/2
f 2/15/1 1/5/1 17/5/1 18/15/1
f 4/18/3 2/15/3 18/15/3 19/18/3
f 3/6/4 4/18/4 19/18/4 20/6/4
f 24/22/5 23/19/5 22/20/5 21/21/5
o Cube.001
v -0.936400 3.604207 1.281403
v -0.936400 3.793974 1.281403
v -1.006140 3.534468 0.952158
v -1.006140 3.863713 0.952158
v -0.746634 3.604207 1.281403
v -0.746634 3.793974 1.281403
v -0.676894 3.534468 0.952158
v -0.676894 3.863713 0.952158
v -1.006140 3.534468 1.281403
v -1.006140 3.863713 1.281403
v -0.676894 3.863713 1.281403
v -0.676894 3.534468 1.281403
v -0.936400 3.604207 1.422192
v -0.936400 3.793974 1.422192
vn -1.0000 -0.0000 -0.0000
vn -0.0000 -0.0000 -1.0000
vn 1.0000 -0.0000 -0.0000
vn -0.0000 -1.0000 -0.0000
vn -0.0000 1.0000 -0.0000
vn -0.0000 -0.0000 1.0000
vt 0.375000 0.000000
vt 0.625000 0.000000
vt 0.625000 0.250000
vt 0.375000 0.250000
vt 0.625000 0.500000
vt 0.375000 0.500000
vt 0.625000 0.750000
vt 0.375000 0.750000
vt 0.125000 0.500000
vt 0.125000 0.750000
vt 0.875000 0.500000
vt 0.875000 0.750000
vt 0.427954 0.947046
vt 0.572046 0.947046
vt 0.625000 1.000000
vt 0.375000 1.000000
vt 0.572046 0.802954
vt 0.427954 0.802954
s 0
usemtl whitetokamk
f 33/23/6 34/24/6 28/25/6 27/26/6
f 27/26/7 28/25/7 32/27/7 31/28/7
f 31/28/8 32/27/8 35/29/8 36/30/8
f 27/31/9 31/28/9 36/30/9 33/32/9
f 32/27/10 28/33/10 34/34/10 35/29/10
f 25/35/11 26/36/11 34/37/11 33/38/11
f 30/39/11 29/40/11 36/30/11 35/29/11
f 29/40/11 25/35/11 33/38/11 36/30/11
f 26/36/11 30/39/11 35/29/11 34/37/11
f 26/36/6 25/35/6 37/35/6 38/36/6
o Cube.002
v 0.828087 3.544157 1.281409
v 0.828087 3.873402 1.281409
v 0.828087 3.544157 0.952163
v 0.828087 3.873402 0.952163
v 1.157332 3.544157 1.281409
v 1.157332 3.873402 1.281409
v 1.157332 3.544157 0.952163
v 1.157332 3.873402 0.952163
vn -1.0000 -0.0000 -0.0000
vn -0.0000 -0.0000 -1.0000
vn 1.0000 -0.0000 -0.0000
vn -0.0000 -0.0000 1.0000
vn -0.0000 -1.0000 -0.0000
vn -0.0000 1.0000 -0.0000
vt 0.375000 0.000000
vt 0.625000 0.000000
vt 0.625000 0.250000
vt 0.375000 0.250000
vt 0.625000 0.500000
vt 0.375000 0.500000
vt 0.625000 0.750000
vt 0.375000 0.750000
vt 0.625000 1.000000
vt 0.375000 1.000000
vt 0.125000 0.500000
vt 0.125000 0.750000
vt 0.875000 0.500000
vt 0.875000 0.750000
s 0
f 39/41/12 40/42/12 42/43/12 41/44/12
f 41/44/13 42/43/13 46/45/13 45/46/13
f 45/46/14 46/45/14 44/47/14 43/48/14
f 43/48/15 44/47/15 40/49/15 39/50/15
f 41/51/16 45/46/16 43/48/16 39/52/16
f 46/45/17 42/53/17 40/54/17 44/47/17
o Cube.003
v 1.068367 3.793974 1.281403
v 1.068367 3.604207 1.281403
v 1.068367 3.793974 1.422192
v 1.068367 3.604207 1.422192
vn 1.0000 -0.0000 -0.0000
vt 0.427954 0.802954
vt 0.572046 0.802954
s 0
f 48/55/18 47/56/18 49/56/18 50/55/18
o Cube.004
v -0.936400 3.561339 1.306349
v -0.936400 3.718921 1.200618
v -0.746634 3.561339 1.306349
v -0.746634 3.718921 1.200618
v -0.936400 3.639781 1.423261
v -0.936400 3.797364 1.317529
v -0.746634 3.797364 1.317529
v -0.746634 3.639781 1.423261
v 1.068367 3.718921 1.200618
v 1.068367 3.561339 1.306349
v 1.068367 3.797364 1.317529
v 1.068367 3.639781 1.423261
vn -0.0000 -0.8304 0.5572
vn -0.0000 0.5572 0.8304
vn -0.0000 0.8304 -0.5572
vn -0.0000 -0.5572 -0.8304
vt 0.427954 0.947046
vt 0.427954 0.802954
vt 0.572046 0.802954
vt 0.572046 0.947046
s 0
f 51/57/19 53/58/19 58/58/19 55/57/19
f 58/58/20 57/59/20 56/60/20 55/57/20
f 54/59/21 52/60/21 56/60/21 57/59/21
f 54/59/21 57/59/21 61/59/21 59/59/21
f 57/59/20 58/58/20 62/58/20 61/59/20
f 53/58/22 54/59/22 59/59/22 60/58/22
f 58/58/19 53/58/19 60/58/19 62/58/19
o Plane
v -0.761878 7.059690 0.952162
v 0.821828 7.059690 0.952162
v -0.761878 6.267837 0.952162
v 0.821828 6.267837 0.952162
v 0.821828 6.267837 1.129983
v 0.821828 7.059690 1.129983
v -0.761878 7.059690 1.129983
v -0.761878 6.267837 1.129983
vn -0.0000 -0.0000 -1.0000
vn -0.0000 -0.0000 1.0000
vn 1.0000 -0.0000 -0.0000
vn -0.0000 -1.0000 -0.0000
vn -0.0000 1.0000 -0.0000
vn -1.0000 -0.0000 -0.0000
vt 0.000000 0.500000
vt 0.000000 1.000000
vt 1.000000 1.000000
vt 1.000000 0.500000
s 0
usemtl greybody
f 65/61/23 63/62/23 64/63/23 66/64/23
usemtl Material.001
f 70/61/24 67/64/24 68/63/24 69/62/24
f 66/64/25 64/63/25 68/63/25 67/64/25
f 65/61/26 66/64/26 67/64/26 70/61/26
f 64/63/27 63/62/27 69/62/27 68/63/27
f 63/62/28 65/61/28 70/61/28 69/62/28
o Text
v 0.731841 6.851714 1.186646
v 0.368911 6.851714 1.186646
v 0.368911 6.795683 1.186646
v 0.519177 6.795683 1.186646
v 0.519177 6.417472 1.186646
v 0.581575 6.417472 1.186646
v 0.581575 6.795683 1.186646
v 0.731841 6.795683 1.186646
v 0.309696 6.851714 1.186646
v 0.247298 6.851714 1.186646
v 0.247298 6.417472 1.186646
v 0.309696 6.417472 1.186646
v 0.185536 6.851714 1.186646
v 0.110403 6.851714 1.186646
v -0.025218 6.686167 1.186646
v -0.161475 6.851714 1.186646
v -0.237245 6.851714 1.186646
v -0.063421 6.642233 1.186646
v -0.250616 6.417472 1.186646
v -0.174847 6.417472 1.186646
v -0.025218 6.597026 1.186646
v 0.122501 6.417472 1.186646
v 0.197634 6.417472 1.186646
v 0.012349 6.642233 1.186646
v -0.276085 6.851714 1.186646
v -0.522495 6.851714 1.186646
v -0.522495 6.417472 1.186646
v -0.270354 6.417472 1.186646
v -0.270354 6.473503 1.186646
v -0.460096 6.473503 1.186646
v -0.460096 6.608488 1.186646
v -0.282452 6.608488 1.186646
v -0.282452 6.664519 1.186646
v -0.460096 6.664519 1.186646
v -0.460096 6.795683 1.186646
v -0.276085 6.795683 1.186646
vn -0.0000 -0.0000 1.0000
vt 0.285714 0.000000
vt 0.000000 0.000000
vt 0.142857 0.000000
vt 1.000000 0.000000
vt 0.428571 0.000000
vt 0.571429 0.000000
vt 0.857143 0.000000
vt 0.714286 0.000000
vt 0.666667 0.000000
vt 0.333333 0.000000
vt 0.454545 0.000000
vt 0.272727 0.000000
vt 0.363636 0.000000
vt 0.181818 0.000000
vt 0.090909 0.000000
vt 0.545455 0.000000
vt 0.727273 0.000000
vt 0.909091 0.000000
vt 0.636364 0.000000
vt 0.818182 0.000000
s 0
usemtl exittext
f 73/65/29 71/66/29 72/67/29
f 73/65/29 78/68/29 71/66/29
f 74/69/29 78/68/29 73/65/29
f 75/70/29 77/71/29 74/69/29
f 77/71/29 78/68/29 74/69/29
f 75/70/29 76/72/29 77/71/29
f 81/73/29 79/66/29 80/74/29
f 81/73/29 82/68/29 79/66/29
f 88/75/29 86/76/29 87/77/29
f 88/75/29 85/78/29 86/76/29
f 85/78/29 83/66/29 84/79/29
f 85/78/29 94/68/29 83/66/29
f 88/75/29 94/68/29 85/78/29
f 89/80/29 94/68/29 88/75/29
f 89/80/29 91/81/29 94/68/29
f 91/81/29 93/82/29 94/68/29
f 89/80/29 90/83/29 91/81/29
f 92/84/29 93/82/29 91/81/29
f 97/78/29 105/82/29 96/79/29
f 105/82/29 95/66/29 96/79/29
f 105/82/29 106/68/29 95/66/29
f 97/78/29 104/84/29 105/82/29
f 97/78/29 101/80/29 104/84/29
f 101/80/29 103/81/29 104/84/29
f 101/80/29 102/83/29 103/81/29
f 97/78/29 100/75/29 101/80/29
f 97/78/29 99/77/29 100/75/29
f 97/78/29 98/76/29 99/77/29
