# Blender 4.5.4 LTS
# www.blender.org
mtllib Power_Cell.mtl
o EV_Power_Cell
v 0.000000 2.983620 -1.000000
v -0.000000 4.983621 -0.874395
v 0.195090 2.983620 -0.980785
v 0.170586 4.983621 -0.857594
v 0.334617 4.983621 -0.807836
v 0.555570 2.983620 -0.831470
v 0.485788 4.983621 -0.727033
v 0.707107 2.983621 -0.707107
v 0.618291 4.983621 -0.618291
v 0.831470 2.983621 -0.555570
v 0.727033 4.983621 -0.485788
v 0.807836 4.983621 -0.334617
v 0.980785 2.983621 -0.195090
v 0.857594 4.983621 -0.170586
v 1.000000 2.983621 0.000000
v 0.874395 4.983621 -0.000000
v 0.980785 2.983621 0.195090
v 0.857594 4.983621 0.170586
v 0.807836 4.983621 0.334616
v 0.831470 2.983621 0.555570
v 0.727033 4.983621 0.485788
v 0.707107 2.983621 0.707107
v 0.618291 4.983621 0.618290
v 0.555570 2.983621 0.831470
v 0.485788 4.983621 0.727033
v 0.334617 4.983621 0.807835
v 0.195090 2.983621 0.980785
v 0.170586 4.983621 0.857594
v -0.000000 2.983621 1.000000
v -0.000000 4.983621 0.874395
v -0.195090 2.983621 0.980785
v -0.170586 4.983621 0.857594
v -0.334617 4.983621 0.807835
v -0.555570 2.983621 0.831470
v -0.485788 4.983621 0.727033
v -0.707107 2.983621 0.707107
v -0.618291 4.983621 0.618290
v -0.831469 2.983621 0.555570
v -0.727033 4.983621 0.485788
v -0.923880 4.983621 0.382683
v -0.980785 2.983621 0.195090
v -0.980785 4.983621 0.195090
v -1.000000 2.983621 -0.000000
v -0.874395 4.983621 -0.000000
v -0.980785 2.983621 -0.195090
v -0.857594 4.983621 -0.170586
v -0.807836 4.983621 -0.334617
v -0.831470 2.983621 -0.555570
v -0.727033 4.983621 -0.485788
v -0.707107 2.983621 -0.707107
v -0.618291 4.983621 -0.618291
v -0.555570 2.983620 -0.831470
v -0.485788 4.983621 -0.727033
v -0.334617 4.983621 -0.807836
v -0.195090 2.983620 -0.980785
v -0.170586 4.983621 -0.857594
v 0.000000 4.438166 -1.000000
v -0.000000 4.555893 -1.100000
v -0.000000 4.865893 -1.100000
v 0.214599 4.865893 -1.078864
v 0.214599 4.555893 -1.078864
v 0.195090 4.438166 -0.980785
v 0.420952 4.865893 -1.016268
v 0.420952 4.555893 -1.016268
v 0.382683 4.438166 -0.923880
v 0.611127 4.865893 -0.914617
v 0.611127 4.555893 -0.914617
v 0.555570 4.438166 -0.831470
v 0.777817 4.865893 -0.777818
v 0.777817 4.555893 -0.777818
v 0.707107 4.438166 -0.707107
v 0.914617 4.865893 -0.611128
v 0.914617 4.555893 -0.611127
v 0.831470 4.438166 -0.555570
v 1.016268 4.865893 -0.420952
v 1.016268 4.555893 -0.420952
v 0.923880 4.438166 -0.382684
v 1.078864 4.865893 -0.214600
v 1.078864 4.555893 -0.214600
v 0.980785 4.438166 -0.195091
v 1.100000 4.865893 -0.000000
v 1.100000 4.555893 -0.000000
v 1.000000 4.438166 -0.000000
v 1.078864 4.865893 0.214599
v 1.078864 4.555893 0.214599
v 0.980785 4.438166 0.195090
v 1.016268 4.865893 0.420951
v 1.016268 4.555893 0.420951
v 0.923880 4.438166 0.382683
v 0.914617 4.865893 0.611127
v 0.914617 4.555893 0.611127
v 0.831470 4.438166 0.555570
v 0.777817 4.865893 0.777817
v 0.777817 4.555893 0.777817
v 0.707107 4.438166 0.707107
v 0.611127 4.865893 0.914616
v 0.611127 4.555893 0.914616
v 0.555570 4.438166 0.831469
v 0.420952 4.865893 1.016267
v 0.420952 4.555893 1.016267
v 0.382683 4.438166 0.923879
v 0.214599 4.865893 1.078864
v 0.214599 4.555893 1.078864
v 0.195090 4.438166 0.980785
v -0.000000 4.865893 1.100000
v -0.000000 4.555894 1.100000
v -0.000000 4.438166 1.000000
v -0.214599 4.865893 1.078864
v -0.214599 4.555893 1.078864
v -0.195090 4.438166 0.980785
v -0.420952 4.865893 1.016267
v -0.420952 4.555893 1.016267
v -0.382683 4.438166 0.923879
v -0.611127 4.865893 0.914616
v -0.611127 4.555893 0.914616
v -0.555570 4.438166 0.831469
v -0.777817 4.865893 0.777817
v -0.777817 4.555893 0.777817
v -0.707107 4.438166 0.707107
v -0.914616 4.865893 0.611127
v -0.914616 4.555893 0.611127
v -0.831469 4.438166 0.555570
v -1.016267 4.865893 0.420952
v -1.016267 4.555893 0.420952
v -0.923880 4.438166 0.382683
v -1.078864 4.865893 0.214599
v -1.078864 4.555893 0.214599
v -0.980785 4.438166 0.195090
v -1.100000 4.865893 -0.000000
v -1.100000 4.555893 -0.000000
v -1.000000 4.438166 -0.000000
v -1.078864 4.865893 -0.214600
v -1.078864 4.555893 -0.214600
v -0.980785 4.438166 -0.195091
v -1.016267 4.865893 -0.420952
v -1.016267 4.555893 -0.420952
v -0.923879 4.438166 -0.382684
v -0.914617 4.865893 -0.611127
v -0.914617 4.555893 -0.611127
v -0.831470 4.438166 -0.555570
v -0.777818 4.865893 -0.777818
v -0.777818 4.555893 -0.777818
v -0.707107 4.438166 -0.707107
v -0.611127 4.865893 -0.914617
v -0.611127 4.555893 -0.914617
v -0.555570 4.438166 -0.831470
v -0.420952 4.865893 -1.016268
v -0.420952 4.555893 -1.016268
v -0.382683 4.438166 -0.923880
v -0.214599 4.865893 -1.078864
v -0.214599 4.555893 -1.078864
v -0.195090 4.438166 -0.980786
v -0.000000 4.983621 -0.000000
v -0.857594 4.983621 0.170586
v -0.807836 4.983621 0.334616
v -0.000000 4.983621 -0.000000
v 0.195090 4.983621 -0.980786
v 0.000000 4.983621 -1.000000
v 0.382683 4.983621 -0.923880
v 0.555570 4.983621 -0.831470
v 0.707107 4.983621 -0.707107
v 0.831470 4.983621 -0.555571
v 0.923880 4.983621 -0.382684
v 0.980785 4.983621 -0.195091
v 1.000000 4.983621 -0.000000
v 0.980785 4.983621 0.195090
v 0.923880 4.983621 0.382683
v 0.831470 4.983621 0.555570
v 0.707107 4.983621 0.707106
v 0.555570 4.983621 0.831469
v 0.382683 4.983621 0.923879
v 0.195090 4.983621 0.980785
v -0.000000 4.983621 1.000000
v -0.195090 4.983621 0.980785
v -0.382683 4.983621 0.923879
v -0.555570 4.983621 0.831469
v -0.707107 4.983621 0.707107
v -0.831469 4.983621 0.555570
v -1.000000 4.983621 -0.000000
v -0.923880 4.983621 0.382683
v -0.980785 4.983621 0.195090
v -0.980785 4.983621 -0.195091
v -0.923879 4.983621 -0.382684
v -0.831470 4.983621 -0.555570
v -0.707107 4.983621 -0.707107
v -0.555570 4.983621 -0.831470
v -0.382683 4.983621 -0.923880
v -0.195090 4.983621 -0.980786
v 0.041855 5.065576 -0.210421
v -0.000000 5.065576 -0.214543
v 0.082102 5.065576 -0.198212
v 0.119194 5.065576 -0.178386
v 0.151705 5.065576 -0.151705
v 0.178386 5.065576 -0.119194
v 0.198212 5.065576 -0.082102
v 0.210420 5.065576 -0.041856
v 0.214543 5.065576 -0.000000
v 0.210421 5.065576 0.041855
v 0.198212 5.065576 0.082102
v 0.178386 5.065576 0.119193
v 0.151705 5.065576 0.151705
v 0.119194 5.065576 0.178386
v 0.082102 5.065576 0.198211
v 0.041855 5.065576 0.210420
v -0.000000 5.065576 0.214543
v -0.041855 5.065576 0.210420
v -0.082102 5.065576 0.198211
v -0.119194 5.065576 0.178385
v -0.151705 5.065576 0.151704
v -0.178386 5.065576 0.119193
v -0.198212 5.065576 0.082102
v -0.210420 5.065576 0.041855
v -0.214543 5.065576 -0.000000
v -0.210421 5.065576 -0.041856
v -0.198212 5.065576 -0.082103
v -0.178386 5.065576 -0.119194
v -0.151705 5.065576 -0.151705
v -0.119194 5.065576 -0.178386
v -0.082102 5.065576 -0.198212
v -0.041855 5.065576 -0.210421
v 0.159015 5.065576 -0.799425
v -0.000000 5.065576 -0.815087
v 0.311920 5.065576 -0.753042
v 0.452838 5.065576 -0.677720
v 0.576353 5.065576 -0.576353
v 0.677719 5.065576 -0.452838
v 0.753042 5.065576 -0.311920
v 0.799425 5.065576 -0.159016
v 0.815086 5.065576 -0.000000
v 0.799425 5.065576 0.159015
v 0.753042 5.065576 0.311920
v 0.677719 5.065576 0.452837
v 0.576353 5.065576 0.576353
v 0.452838 5.065576 0.677719
v 0.311920 5.065576 0.753041
v 0.159015 5.065576 0.799424
v -0.000000 5.065576 0.815086
v -0.159015 5.065576 0.799424
v -0.311920 5.065576 0.753041
v -0.452838 5.065576 0.677719
v -0.576353 5.065576 0.576353
v -0.677719 5.065576 0.452837
v -0.753041 5.065576 0.311920
v -0.799425 5.065576 0.159015
v -0.815086 5.065576 -0.000000
v -0.799425 5.065576 -0.159016
v -0.753041 5.065576 -0.311920
v -0.677720 5.065576 -0.452838
v -0.576353 5.065576 -0.576353
v -0.452838 5.065576 -0.677720
v -0.311920 5.065576 -0.753042
v -0.159015 5.065576 -0.799425
v 0.025191 5.128693 -0.126645
v -0.000000 5.128693 -0.129126
v 0.049414 5.128693 -0.119297
v 0.071738 5.128693 -0.107365
v 0.091306 5.128693 -0.091306
v 0.107364 5.128693 -0.071739
v 0.119297 5.128693 -0.049415
v 0.126645 5.128693 -0.025192
v 0.129126 5.128693 -0.000000
v 0.126645 5.128693 0.025191
v 0.119297 5.128693 0.049414
v 0.107364 5.128693 0.071738
v 0.091306 5.128693 0.091305
v 0.071738 5.128693 0.107364
v 0.049414 5.128693 0.119296
v 0.025191 5.128693 0.126644
v -0.000000 5.128693 0.129125
v -0.025191 5.128693 0.126644
v -0.049414 5.128693 0.119296
v -0.071738 5.128693 0.107364
v -0.091306 5.128693 0.091305
v -0.107364 5.128693 0.071738
v -0.119297 5.128693 0.049414
v -0.126645 5.128693 0.025191
v -0.129126 5.128693 -0.000000
v -0.126645 5.128693 -0.025192
v -0.119297 5.128693 -0.049415
v -0.107364 5.128693 -0.071739
v -0.091306 5.128693 -0.091306
v -0.071738 5.128693 -0.107365
v -0.049414 5.128693 -0.119297
v -0.025191 5.128693 -0.126645
v 0.172213 2.983620 -0.886477
v 0.345503 2.983620 -0.834117
v 0.505061 2.983620 -0.748607
v 0.748607 2.983621 -0.505061
v 0.834117 2.983621 -0.345503
v 0.886477 2.983621 -0.172213
v 0.886477 2.983621 0.172213
v 0.834117 2.983621 0.345503
v 0.748607 2.983621 0.505061
v 0.505061 2.983621 0.748607
v 0.345503 2.983621 0.834117
v 0.172213 2.983621 0.886477
v -0.172213 2.983621 0.886477
v -0.345503 2.983621 0.834117
v -0.505061 2.983621 0.748607
v -0.748607 2.983621 0.505061
v -0.834117 2.983621 0.345503
v -0.886477 2.983621 0.172213
v -0.886477 2.983621 -0.172213
v -0.834117 2.983621 -0.345503
v -0.748607 2.983621 -0.505061
v -0.505061 2.983620 -0.748607
v -0.345503 2.983620 -0.834117
v -0.172213 2.983620 -0.886477
v 0.172213 4.397477 -0.886477
v 0.345503 4.397477 -0.834118
v 0.505061 4.397477 -0.748607
v 0.748607 4.397477 -0.505061
v 0.834117 4.397477 -0.345503
v 0.886477 4.397477 -0.172213
v 0.886477 4.397477 0.172213
v 0.834117 4.397477 0.345502
v 0.748607 4.397477 0.505061
v 0.505061 4.397477 0.748607
v 0.345503 4.397477 0.834117
v 0.172213 4.397477 0.886477
v -0.172213 4.397477 0.886477
v -0.345503 4.397477 0.834117
v -0.505061 4.397477 0.748606
v -0.748607 4.397477 0.505061
v -0.834117 4.397477 0.345503
v -0.886477 4.397477 0.172213
v -0.886477 4.397477 -0.172213
v -0.834117 4.397477 -0.345503
v -0.748607 4.397477 -0.505061
v -0.505061 4.397477 -0.748607
v -0.345503 4.397477 -0.834118
v -0.172213 4.397477 -0.886477
v -0.000000 0.983620 -0.874395
v 0.170586 0.983620 -0.857594
v 0.334617 0.983620 -0.807835
v 0.485788 0.983621 -0.727033
v 0.618291 0.983621 -0.618290
v 0.727033 0.983621 -0.485788
v 0.807836 0.983621 -0.334616
v 0.857594 0.983621 -0.170586
v 0.874395 0.983621 0.000000
v 0.857594 0.983621 0.170586
v 0.807836 0.983621 0.334617
v 0.727033 0.983621 0.485788
v 0.618291 0.983621 0.618291
v 0.485788 0.983621 0.727033
v 0.334617 0.983621 0.807836
v 0.170586 0.983621 0.857594
v -0.000000 0.983621 0.874395
v -0.170586 0.983621 0.857594
v -0.334617 0.983621 0.807836
v -0.485788 0.983621 0.727033
v -0.618291 0.983621 0.618291
v -0.727033 0.983621 0.485788
v -0.923880 0.983621 0.382684
v -0.980785 0.983621 0.195091
v -0.874395 0.983621 0.000000
v -0.857594 0.983621 -0.170586
v -0.807836 0.983621 -0.334616
v -0.727033 0.983621 -0.485787
v -0.618291 0.983621 -0.618290
v -0.485788 0.983621 -0.727033
v -0.334617 0.983620 -0.807836
v -0.170586 0.983620 -0.857594
v 0.000000 1.529075 -1.000000
v -0.000000 1.411348 -1.100000
v -0.000000 1.101348 -1.100000
v 0.214599 1.101348 -1.078863
v 0.214599 1.411348 -1.078864
v 0.195090 1.529075 -0.980785
v 0.420952 1.101348 -1.016267
v 0.420952 1.411348 -1.016267
v 0.382683 1.529075 -0.923879
v 0.611127 1.101348 -0.914616
v 0.611127 1.411348 -0.914616
v 0.555570 1.529075 -0.831469
v 0.777817 1.101348 -0.777817
v 0.777817 1.411348 -0.777817
v 0.707107 1.529075 -0.707107
v 0.914617 1.101348 -0.611127
v 0.914617 1.411348 -0.611127
v 0.831470 1.529075 -0.555570
v 1.016268 1.101348 -0.420951
v 1.016268 1.411348 -0.420952
v 0.923880 1.529075 -0.382683
v 1.078864 1.101348 -0.214599
v 1.078864 1.411348 -0.214599
v 0.980785 1.529075 -0.195090
v 1.100000 1.101348 0.000000
v 1.100000 1.411348 0.000000
v 1.000000 1.529075 0.000000
v 1.078864 1.101348 0.214600
v 1.078864 1.411348 0.214600
v 0.980785 1.529075 0.195091
v 1.016268 1.101348 0.420952
v 1.016268 1.411348 0.420952
v 0.923880 1.529075 0.382684
v 0.914617 1.101348 0.611127
v 0.914617 1.411348 0.611127
v 0.831470 1.529075 0.555570
v 0.777817 1.101348 0.777818
v 0.777817 1.411348 0.777818
v 0.707107 1.529075 0.707107
v 0.611127 1.101348 0.914617
v 0.611127 1.411348 0.914617
v 0.555570 1.529075 0.831470
v 0.420952 1.101348 1.016268
v 0.420952 1.411348 1.016268
v 0.382683 1.529075 0.923880
v 0.214599 1.101348 1.078864
v 0.214599 1.411348 1.078864
v 0.195090 1.529075 0.980786
v -0.000000 1.101348 1.100000
v -0.000000 1.411348 1.100000
v -0.000000 1.529075 1.000000
v -0.214599 1.101348 1.078864
v -0.214599 1.411348 1.078864
v -0.195090 1.529075 0.980786
v -0.420952 1.101348 1.016268
v -0.420952 1.411348 1.016268
v -0.382683 1.529075 0.923880
v -0.611127 1.101348 0.914617
v -0.611127 1.411348 0.914617
v -0.555570 1.529075 0.831470
v -0.777817 1.101348 0.777818
v -0.777817 1.411348 0.777818
v -0.707107 1.529075 0.707107
v -0.914616 1.101348 0.611128
v -0.914616 1.411348 0.611128
v -0.831469 1.529075 0.555571
v -1.016267 1.101348 0.420952
v -1.016267 1.411348 0.420952
v -0.923880 1.529075 0.382684
v -1.078864 1.101348 0.214600
v -1.078864 1.411348 0.214600
v -0.980785 1.529075 0.195091
v -1.100000 1.101348 0.000000
v -1.100000 1.411348 0.000000
v -1.000000 1.529075 0.000000
v -1.078864 1.101348 -0.214599
v -1.078864 1.411348 -0.214599
v -0.980785 1.529075 -0.195090
v -1.016267 1.101348 -0.420952
v -1.016267 1.411348 -0.420952
v -0.923879 1.529075 -0.382683
v -0.914617 1.101348 -0.611127
v -0.914617 1.411348 -0.611127
v -0.831470 1.529075 -0.555570
v -0.777818 1.101348 -0.777817
v -0.777818 1.411348 -0.777817
v -0.707107 1.529075 -0.707106
v -0.611127 1.101348 -0.914616
v -0.611127 1.411348 -0.914616
v -0.555570 1.529075 -0.831469
v -0.420952 1.101348 -1.016267
v -0.420952 1.411348 -1.016267
v -0.382683 1.529075 -0.923879
v -0.214599 1.101348 -1.078864
v -0.214599 1.411348 -1.078864
v -0.195090 1.529075 -0.980785
v -0.000000 0.983621 0.000000
v -0.857594 0.983621 0.170586
v -0.807836 0.983621 0.334617
v -0.000000 0.983621 0.000000
v 0.195090 0.983620 -0.980785
v 0.000000 0.983620 -1.000000
v 0.382683 0.983620 -0.923879
v 0.555570 0.983620 -0.831469
v 0.707107 0.983621 -0.707106
v 0.831470 0.983621 -0.555570
v 0.923880 0.983621 -0.382683
v 0.980785 0.983621 -0.195090
v 1.000000 0.983621 0.000000
v 0.980785 0.983621 0.195091
v 0.923880 0.983621 0.382684
v 0.831470 0.983621 0.555570
v 0.707107 0.983621 0.707107
v 0.555570 0.983621 0.831470
v 0.382683 0.983621 0.923880
v 0.195090 0.983621 0.980786
v -0.000000 0.983621 1.000000
v -0.195090 0.983621 0.980786
v -0.382683 0.983621 0.923880
v -0.555570 0.983621 0.831470
v -0.707107 0.983621 0.707107
v -0.831469 0.983621 0.555571
v -1.000000 0.983621 0.000000
v -0.923880 0.983621 0.382684
v -0.980785 0.983621 0.195091
v -0.980785 0.983621 -0.195090
v -0.923879 0.983621 -0.382683
v -0.831470 0.983621 -0.555570
v -0.707107 0.983621 -0.707106
v -0.555570 0.983620 -0.831469
v -0.382683 0.983620 -0.923879
v -0.195090 0.983620 -0.980785
v 0.041855 0.901666 -0.210420
v -0.000000 0.901666 -0.214543
v 0.082102 0.901666 -0.198211
v 0.119194 0.901666 -0.178386
v 0.151705 0.901666 -0.151704
v 0.178386 0.901666 -0.119193
v 0.198212 0.901666 -0.082102
v 0.210420 0.901666 -0.041855
v 0.214543 0.901666 0.000000
v 0.210421 0.901666 0.041856
v 0.198212 0.901666 0.082102
v 0.178386 0.901666 0.119194
v 0.151705 0.901666 0.151705
v 0.119194 0.901666 0.178386
v 0.082102 0.901666 0.198212
v 0.041855 0.901666 0.210421
v -0.000000 0.901666 0.214543
v -0.041855 0.901666 0.210421
v -0.082102 0.901666 0.198212
v -0.119194 0.901666 0.178386
v -0.151705 0.901666 0.151705
v -0.178386 0.901666 0.119194
v -0.198212 0.901666 0.082102
v -0.210420 0.901666 0.041856
v -0.214543 0.901666 0.000000
v -0.210421 0.901666 -0.041855
v -0.198212 0.901666 -0.082102
v -0.178386 0.901666 -0.119193
v -0.151705 0.901666 -0.151704
v -0.119194 0.901666 -0.178386
v -0.082102 0.901666 -0.198211
v -0.041855 0.901666 -0.210420
v 0.159015 0.901665 -0.799424
v -0.000000 0.901665 -0.815086
v 0.311920 0.901665 -0.753041
v 0.452838 0.901666 -0.677719
v 0.576353 0.901666 -0.576353
v 0.677719 0.901666 -0.452837
v 0.753042 0.901666 -0.311920
v 0.799425 0.901666 -0.159015
v 0.815086 0.901666 0.000000
v 0.799425 0.901666 0.159016
v 0.753042 0.901666 0.311920
v 0.677719 0.901666 0.452838
v 0.576353 0.901666 0.576353
v 0.452838 0.901666 0.677720
v 0.311920 0.901666 0.753042
v 0.159015 0.901666 0.799425
v -0.000000 0.901666 0.815087
v -0.159015 0.901666 0.799425
v -0.311920 0.901666 0.753042
v -0.452838 0.901666 0.677720
v -0.576353 0.901666 0.576353
v -0.677719 0.901666 0.452838
v -0.753041 0.901666 0.311920
v -0.799425 0.901666 0.159016
v -0.815086 0.901666 0.000000
v -0.799425 0.901666 -0.159015
v -0.753041 0.901666 -0.311920
v -0.677720 0.901666 -0.452837
v -0.576353 0.901666 -0.576353
v -0.452838 0.901666 -0.677719
v -0.311920 0.901665 -0.753041
v -0.159015 0.901665 -0.799424
v 0.025191 0.838548 -0.126644
v -0.000000 0.838548 -0.129125
v 0.049414 0.838548 -0.119296
v 0.071738 0.838548 -0.107364
v 0.091306 0.838548 -0.091305
v 0.107364 0.838548 -0.071738
v 0.119297 0.838548 -0.049414
v 0.126645 0.838548 -0.025191
v 0.129126 0.838548 0.000000
v 0.126645 0.838548 0.025192
v 0.119297 0.838548 0.049415
v 0.107364 0.838548 0.071739
v 0.091306 0.838548 0.091306
v 0.071738 0.838548 0.107365
v 0.049414 0.838548 0.119297
v 0.025191 0.838548 0.126645
v -0.000000 0.838548 0.129126
v -0.025191 0.838548 0.126645
v -0.049414 0.838548 0.119297
v -0.071738 0.838548 0.107364
v -0.091306 0.838548 0.091306
v -0.107364 0.838548 0.071739
v -0.119297 0.838548 0.049415
v -0.126645 0.838548 0.025192
v -0.129126 0.838548 0.000000
v -0.126645 0.838548 -0.025191
v -0.119297 0.838548 -0.049414
v -0.107364 0.838548 -0.071738
v -0.091306 0.838548 -0.091305
v -0.071738 0.838548 -0.107364
v -0.049414 0.838548 -0.119296
v -0.025191 0.838548 -0.126644
v 0.172213 1.569764 -0.886477
v 0.345503 1.569764 -0.834117
v 0.505061 1.569764 -0.748606
v 0.748607 1.569764 -0.505061
v 0.834117 1.569765 -0.345502
v 0.886477 1.569765 -0.172213
v 0.886477 1.569765 0.172213
v 0.834117 1.569765 0.345503
v 0.748607 1.569765 0.505061
v 0.505061 1.569765 0.748607
v 0.345503 1.569765 0.834118
v 0.172213 1.569765 0.886477
v -0.172213 1.569765 0.886477
v -0.345503 1.569765 0.834118
v -0.505061 1.569765 0.748607
v -0.748607 1.569765 0.505061
v -0.834117 1.569765 0.345503
v -0.886477 1.569765 0.172213
v -0.886477 1.569765 -0.172213
v -0.834117 1.569765 -0.345503
v -0.748607 1.569764 -0.505061
v -0.505061 1.569764 -0.748606
v -0.345503 1.569764 -0.834117
v -0.172213 1.569764 -0.886477
vn -0.0000 0.3381 -0.9411
vn -0.0000 0.8975 -0.4410
vn 0.0860 0.8975 -0.4325
vn 0.1836 0.3381 -0.9230
vn 0.1688 0.8975 -0.4074
vn 0.3601 0.3381 -0.8695
vn 0.2450 0.8975 -0.3667
vn 0.5229 0.3381 -0.7825
vn 0.3118 0.8975 -0.3118
vn 0.6655 0.3381 -0.6655
vn 0.3667 0.8975 -0.2450
vn 0.7825 0.3381 -0.5229
vn 0.4074 0.8975 -0.1688
vn 0.8695 0.3381 -0.3602
vn 0.4325 0.8975 -0.0860
vn 0.9230 0.3381 -0.1836
vn 0.4410 0.8975 -0.0000
vn 0.9411 0.3381 -0.0000
vn 0.4325 0.8975 0.0860
vn 0.9230 0.3381 0.1836
vn 0.4074 0.8975 0.1688
vn 0.8695 0.3381 0.3601
vn 0.3667 0.8975 0.2450
vn 0.7825 0.3381 0.5229
vn 0.3118 0.8975 0.3118
vn 0.6655 0.3381 0.6655
vn 0.2450 0.8975 0.3667
vn 0.5229 0.3381 0.7825
vn 0.1688 0.8975 0.4074
vn 0.3602 0.3381 0.8695
vn 0.0860 0.8975 0.4325
vn 0.1836 0.3381 0.9230
vn -0.0000 0.8975 0.4410
vn -0.0000 0.3381 0.9411
vn -0.0860 0.8975 0.4325
vn -0.1836 0.3381 0.9230
vn -0.1688 0.8975 0.4074
vn -0.3602 0.3381 0.8695
vn -0.2450 0.8975 0.3667
vn -0.5229 0.3381 0.7825
vn -0.3118 0.8975 0.3118
vn -0.6655 0.3381 0.6655
vn -0.3667 0.8975 0.2450
vn -0.7825 0.3381 0.5229
vn -0.4074 0.8975 0.1688
vn -0.8695 0.3381 0.3601
vn -0.4325 0.8975 0.0860
vn -0.9230 0.3381 0.1836
vn -0.4410 0.8975 -0.0000
vn -0.9411 0.3381 -0.0000
vn -0.4325 0.8975 -0.0860
vn -0.9230 0.3381 -0.1836
vn -0.4074 0.8975 -0.1688
vn -0.8695 0.3381 -0.3602
vn -0.3667 0.8975 -0.2450
vn -0.7825 0.3381 -0.5229
vn -0.3118 0.8975 -0.3118
vn -0.6655 0.3381 -0.6655
vn -0.2450 0.8975 -0.3667
vn -0.5229 0.3381 -0.7825
vn -0.1688 0.8975 -0.4074
vn -0.3602 0.3381 -0.8695
vn -0.0860 0.8975 -0.4325
vn -0.1836 0.3381 -0.9230
vn -0.8154 -0.0000 -0.5789
vn -0.3320 -0.5976 -0.7298
vn -0.0000 -0.3520 -0.9360
vn -0.0000 -0.0000 -1.0000
vn -0.1836 -0.3381 -0.9230
vn -0.0000 -0.3381 -0.9411
vn -0.2295 -0.8003 -0.5540
vn -0.3602 -0.3381 -0.8695
vn -0.7508 -0.5976 0.2813
vn -0.5540 -0.8003 0.2295
vn -0.7586 -0.5708 0.3142
vn -0.8765 -0.4423 -0.1898
vn -0.2813 -0.5976 -0.7508
vn -0.5229 -0.3381 -0.7825
vn -0.7071 -0.0000 -0.7071
vn -0.6618 -0.3520 -0.6618
vn 0.1673 -0.0000 -0.9859
vn -0.6655 -0.3381 -0.6655
vn -0.9859 -0.0000 0.1673
vn -0.7508 -0.5976 -0.2813
vn -0.7825 -0.3381 -0.5229
vn -0.5540 -0.8003 -0.2295
vn -0.8695 -0.3381 -0.3601
vn -0.7540 -0.4423 -0.4856
vn -0.3142 -0.5708 -0.7586
vn -0.7298 -0.5976 -0.3320
vn -0.9230 -0.3381 -0.1836
vn -1.0000 -0.0000 -0.0000
vn -0.9360 -0.3520 -0.0000
vn -0.5789 -0.0000 -0.8154
vn -0.9411 -0.3381 -0.0000
vn -0.5789 -0.0000 0.8154
vn -0.7298 -0.5976 0.3320
vn -0.9230 -0.3381 0.1836
vn 0.9859 -0.0000 0.1673
vn 0.7508 -0.5976 -0.2813
vn 0.8765 -0.4423 0.1898
vn 0.9649 -0.0000 0.2626
vn -0.8695 -0.3381 0.3602
vn 0.3320 -0.5976 0.7298
vn 0.8154 -0.0000 0.5789
vn 0.8680 -0.0000 0.4966
vn 0.7540 -0.4423 0.4856
vn -0.7825 -0.3381 0.5229
vn -0.7071 -0.0000 0.7071
vn -0.6618 -0.3520 0.6618
vn -0.9859 -0.0000 -0.1673
vn -0.6655 -0.3381 0.6655
vn 0.1673 -0.0000 0.9859
vn -0.2813 -0.5976 0.7508
vn -0.5229 -0.3381 0.7825
vn -0.4856 -0.4423 -0.7540
vn -0.4966 -0.0000 -0.8680
vn -0.2295 -0.8003 0.5540
vn -0.3602 -0.3381 0.8695
vn -0.3320 -0.5976 0.7298
vn -0.3142 -0.5708 0.7586
vn -0.7540 -0.4423 0.4856
vn -0.1836 -0.3381 0.9230
vn -0.0000 -0.0000 1.0000
vn -0.0000 -0.3520 0.9360
vn -0.8154 -0.0000 0.5789
vn -0.0000 -0.3381 0.9411
vn 0.1836 -0.3381 0.9230
vn -0.8765 -0.4423 0.1898
vn -0.7586 -0.5708 -0.3142
vn 0.2295 -0.8003 0.5540
vn 0.3602 -0.3381 0.8695
vn 0.2813 -0.5976 0.7508
vn 0.5229 -0.3381 0.7825
vn 0.7071 -0.0000 0.7071
vn 0.6618 -0.3520 0.6618
vn -0.1673 -0.0000 0.9859
vn 0.6655 -0.3381 0.6655
vn 0.9859 -0.0000 -0.1673
vn 0.7508 -0.5976 0.2813
vn 0.7825 -0.3381 0.5229
vn 0.5540 -0.8003 0.2295
vn 0.8695 -0.3381 0.3601
vn 0.7298 -0.5976 0.3320
vn 0.9230 -0.3381 0.1836
vn 1.0000 -0.0000 -0.0000
vn 0.9360 -0.3520 -0.0000
vn 0.5789 -0.0000 0.8154
vn 0.9411 -0.3381 -0.0000
vn 0.5789 -0.0000 -0.8154
vn 0.7298 -0.5976 -0.3320
vn 0.9230 -0.3381 -0.1836
vn 0.5540 -0.8003 -0.2295
vn 0.8695 -0.3381 -0.3602
vn 0.3142 -0.5708 0.7586
vn -0.1898 -0.4423 0.8765
vn 0.7825 -0.3381 -0.5229
vn 0.7071 -0.0000 -0.7071
vn 0.6618 -0.3520 -0.6618
vn 0.6655 -0.3381 -0.6655
vn -0.1673 -0.0000 -0.9859
vn 0.2813 -0.5976 -0.7508
vn 0.5229 -0.3381 -0.7825
vn -0.4856 -0.4423 0.7540
vn 0.2295 -0.8003 -0.5540
vn 0.3602 -0.3381 -0.8695
vn 0.8154 -0.0000 -0.5789
vn 0.3320 -0.5976 -0.7298
vn 0.7540 -0.4423 -0.4856
vn 0.8680 -0.0000 -0.4966
vn 0.1836 -0.3381 -0.9230
vn 0.1652 0.9020 0.3989
vn 0.2399 0.9020 0.3590
vn 0.2649 0.8790 0.3964
vn 0.1825 0.8790 0.4405
vn -0.0000 0.9020 -0.4317
vn 0.0842 0.9020 -0.4234
vn 0.1652 0.9020 -0.3989
vn 0.2399 0.9020 -0.3590
vn 0.3053 0.9020 -0.3053
vn 0.3590 0.9020 -0.2399
vn 0.3989 0.9020 -0.1652
vn 0.4234 0.9020 -0.0842
vn 0.4317 0.9020 -0.0000
vn 0.4234 0.9020 0.0842
vn 0.3989 0.9020 0.1652
vn 0.3590 0.9020 0.2399
vn 0.3053 0.9020 0.3053
vn 0.0842 0.9020 0.4234
vn -0.0000 0.9020 0.4317
vn -0.0842 0.9020 0.4234
vn -0.1652 0.9020 0.3989
vn -0.2399 0.9020 0.3590
vn -0.3053 0.9020 0.3053
vn -0.3590 0.9020 0.2399
vn -0.3989 0.9020 0.1652
vn -0.4234 0.9020 0.0842
vn -0.4317 0.9020 -0.0000
vn -0.4234 0.9020 -0.0842
vn -0.3989 0.9020 -0.1652
vn -0.3590 0.9020 -0.2399
vn -0.3053 0.9020 -0.3053
vn -0.2399 0.9020 -0.3590
vn -0.1652 0.9020 -0.3989
vn -0.0842 0.9020 -0.4234
vn -0.2893 0.9555 -0.0576
vn -0.2950 0.9555 -0.0000
vn -0.3303 0.9439 -0.0000
vn -0.3239 0.9439 -0.0644
vn -0.0000 0.8790 -0.4768
vn 0.0930 0.8790 -0.4676
vn -0.3964 0.8790 -0.2649
vn -0.3371 0.8790 -0.3371
vn 0.0930 0.8790 0.4676
vn 0.1825 0.8790 -0.4405
vn -0.2649 0.8790 -0.3964
vn -0.0000 0.8790 0.4768
vn 0.2649 0.8790 -0.3964
vn -0.1825 0.8790 -0.4405
vn -0.0930 0.8790 0.4676
vn 0.3371 0.8790 -0.3371
vn -0.0930 0.8790 -0.4676
vn -0.1825 0.8790 0.4405
vn 0.3964 0.8790 -0.2649
vn -0.2649 0.8790 0.3964
vn 0.4405 0.8790 -0.1825
vn -0.3371 0.8790 0.3371
vn 0.4676 0.8790 -0.0930
vn -0.3964 0.8790 0.2649
vn 0.4768 0.8790 -0.0000
vn -0.4405 0.8790 0.1825
vn 0.4676 0.8790 0.0930
vn -0.4676 0.8790 0.0930
vn 0.4405 0.8790 0.1825
vn -0.4768 0.8790 -0.0000
vn 0.3964 0.8790 0.2649
vn -0.4676 0.8790 -0.0930
vn 0.3371 0.8790 0.3371
vn -0.4405 0.8790 -0.1825
vn -0.0000 0.9555 -0.2950
vn 0.0576 0.9555 -0.2893
vn 0.1129 0.9555 -0.2726
vn 0.1639 0.9555 -0.2453
vn 0.2086 0.9555 -0.2086
vn 0.2453 0.9555 -0.1639
vn 0.2726 0.9555 -0.1129
vn 0.2893 0.9555 -0.0576
vn 0.2950 0.9555 -0.0000
vn 0.2893 0.9555 0.0576
vn 0.2726 0.9555 0.1129
vn 0.2453 0.9555 0.1639
vn 0.2086 0.9555 0.2086
vn 0.1639 0.9555 0.2453
vn 0.1129 0.9555 0.2726
vn 0.0576 0.9555 0.2893
vn -0.0000 0.9555 0.2950
vn -0.0576 0.9555 0.2893
vn -0.1129 0.9555 0.2726
vn -0.1639 0.9555 0.2453
vn -0.2086 0.9555 0.2086
vn -0.2453 0.9555 0.1639
vn -0.2726 0.9555 0.1129
vn -0.2893 0.9555 0.0576
vn -0.2726 0.9555 -0.1129
vn -0.2453 0.9555 -0.1639
vn -0.2086 0.9555 -0.2086
vn -0.1639 0.9555 -0.2453
vn -0.1129 0.9555 -0.2726
vn -0.0576 0.9555 -0.2893
vn 0.0644 0.9439 -0.3239
vn -0.0000 0.9439 -0.3303
vn -0.0644 0.9439 -0.3239
vn -0.1264 0.9439 -0.3051
vn -0.1835 0.9439 -0.2746
vn -0.2335 0.9439 -0.2335
vn -0.2746 0.9439 -0.1835
vn -0.3051 0.9439 -0.1264
vn -0.3239 0.9439 0.0644
vn -0.3051 0.9439 0.1264
vn -0.2746 0.9439 0.1835
vn -0.2335 0.9439 0.2335
vn -0.1835 0.9439 0.2746
vn -0.1264 0.9439 0.3051
vn -0.0644 0.9439 0.3239
vn -0.0000 0.9439 0.3303
vn 0.0644 0.9439 0.3239
vn 0.1264 0.9439 0.3051
vn 0.1835 0.9439 0.2746
vn 0.2335 0.9439 0.2335
vn 0.2746 0.9439 0.1835
vn 0.3051 0.9439 0.1264
vn 0.3239 0.9439 0.0644
vn 0.3303 0.9439 -0.0000
vn 0.3239 0.9439 -0.0644
vn 0.3051 0.9439 -0.1264
vn 0.2746 0.9439 -0.1835
vn 0.2335 0.9439 -0.2335
vn 0.1835 0.9439 -0.2746
vn 0.1264 0.9439 -0.3051
vn -0.3827 -0.0000 -0.9239
vn -0.8680 -0.0000 -0.4966
vn 0.2626 -0.0000 -0.9649
vn 0.1898 -0.4423 -0.8765
vn -0.9239 -0.0000 -0.3827
vn -0.9649 -0.0000 0.2626
vn -0.9239 -0.0000 0.3827
vn -0.4966 -0.0000 0.8680
vn -0.9649 -0.0000 -0.2626
vn -0.3827 -0.0000 0.9239
vn 0.1898 -0.4423 0.8765
vn 0.2626 -0.0000 0.9649
vn -0.8680 -0.0000 0.4966
vn 0.3827 -0.0000 0.9239
vn -0.2626 -0.0000 0.9649
vn 0.9239 -0.0000 0.3827
vn 0.7586 -0.5708 0.3142
vn 0.8765 -0.4423 -0.1898
vn 0.9649 -0.0000 -0.2626
vn 0.4966 -0.0000 0.8680
vn 0.4856 -0.4423 0.7540
vn 0.9239 -0.0000 -0.3827
vn 0.7586 -0.5708 -0.3142
vn 0.4856 -0.4423 -0.7540
vn 0.4966 -0.0000 -0.8680
vn 0.3827 -0.0000 -0.9239
vn 0.3142 -0.5708 -0.7586
vn -0.1898 -0.4423 -0.8765
vn -0.2626 -0.0000 -0.9649
vn 0.0860 -0.8975 -0.4325
vn -0.0000 -0.8975 -0.4410
vn 0.3601 -0.3381 -0.8695
vn 0.1688 -0.8975 -0.4074
vn 0.2450 -0.8975 -0.3667
vn 0.3118 -0.8975 -0.3118
vn 0.3667 -0.8975 -0.2450
vn 0.4074 -0.8975 -0.1688
vn 0.4325 -0.8975 -0.0860
vn 0.4410 -0.8975 -0.0000
vn 0.4325 -0.8975 0.0860
vn 0.8695 -0.3381 0.3602
vn 0.4074 -0.8975 0.1688
vn 0.3667 -0.8975 0.2450
vn 0.3118 -0.8975 0.3118
vn 0.2450 -0.8975 0.3667
vn 0.1688 -0.8975 0.4074
vn 0.0860 -0.8975 0.4325
vn -0.0000 -0.8975 0.4410
vn -0.0860 -0.8975 0.4325
vn -0.1688 -0.8975 0.4074
vn -0.2450 -0.8975 0.3667
vn -0.3118 -0.8975 0.3118
vn -0.3667 -0.8975 0.2450
vn -0.4074 -0.8975 0.1688
vn -0.4325 -0.8975 0.0860
vn -0.4410 -0.8975 -0.0000
vn -0.4325 -0.8975 -0.0860
vn -0.8695 -0.3381 -0.3602
vn -0.4074 -0.8975 -0.1688
vn -0.3667 -0.8975 -0.2450
vn -0.3118 -0.8975 -0.3118
vn -0.2450 -0.8975 -0.3667
vn -0.1688 -0.8975 -0.4074
vn -0.0860 -0.8975 -0.4325
vn -0.0000 0.3520 -0.9360
vn -0.3320 0.5976 -0.7298
vn -0.2295 0.8003 -0.5540
vn -0.3601 0.3381 -0.8695
vn -0.7508 0.5976 0.2813
vn -0.8765 0.4423 -0.1898
vn -0.7586 0.5708 0.3142
vn -0.5540 0.8003 0.2295
vn -0.2813 0.5976 -0.7508
vn -0.6618 0.3520 -0.6618
vn -0.7508 0.5976 -0.2813
vn -0.5540 0.8003 -0.2295
vn -0.3142 0.5708 -0.7586
vn -0.7540 0.4423 -0.4856
vn -0.7298 0.5976 -0.3320
vn -0.9360 0.3520 -0.0000
vn -0.7298 0.5976 0.3320
vn 0.8765 0.4423 0.1898
vn 0.7508 0.5976 -0.2813
vn 0.3320 0.5976 0.7298
vn 0.7540 0.4423 0.4856
vn -0.6618 0.3520 0.6618
vn -0.2813 0.5976 0.7508
vn -0.4856 0.4423 -0.7540
vn -0.2295 0.8003 0.5540
vn -0.3320 0.5976 0.7298
vn -0.7540 0.4423 0.4856
vn -0.3142 0.5708 0.7586
vn -0.0000 0.3520 0.9360
vn -0.7586 0.5708 -0.3142
vn -0.8765 0.4423 0.1898
vn 0.2295 0.8003 0.5540
vn 0.2813 0.5976 0.7508
vn 0.6618 0.3520 0.6618
vn 0.7508 0.5976 0.2813
vn 0.5540 0.8003 0.2295
vn 0.7298 0.5976 0.3320
vn 0.9360 0.3520 -0.0000
vn 0.7298 0.5976 -0.3320
vn 0.5540 0.8003 -0.2295
vn -0.1898 0.4423 0.8765
vn 0.3142 0.5708 0.7586
vn 0.6618 0.3520 -0.6618
vn 0.2813 0.5976 -0.7508
vn -0.4856 0.4423 0.7540
vn 0.2295 0.8003 -0.5540
vn 0.3602 0.3381 -0.8695
vn 0.7540 0.4423 -0.4856
vn 0.3320 0.5976 -0.7298
vn 0.1652 -0.9020 0.3989
vn 0.1825 -0.8790 0.4405
vn 0.2649 -0.8790 0.3964
vn 0.2399 -0.9020 0.3590
vn -0.0000 -0.9020 -0.4317
vn 0.0842 -0.9020 -0.4234
vn 0.1652 -0.9020 -0.3989
vn 0.2399 -0.9020 -0.3590
vn 0.3053 -0.9020 -0.3053
vn 0.3590 -0.9020 -0.2399
vn 0.3989 -0.9020 -0.1652
vn 0.4234 -0.9020 -0.0842
vn 0.4317 -0.9020 -0.0000
vn 0.4234 -0.9020 0.0842
vn 0.3989 -0.9020 0.1652
vn 0.3590 -0.9020 0.2399
vn 0.3053 -0.9020 0.3053
vn 0.0842 -0.9020 0.4234
vn -0.0000 -0.9020 0.4317
vn -0.0842 -0.9020 0.4234
vn -0.1652 -0.9020 0.3989
vn -0.2399 -0.9020 0.3590
vn -0.3053 -0.9020 0.3053
vn -0.3590 -0.9020 0.2399
vn -0.3989 -0.9020 0.1652
vn -0.4234 -0.9020 0.0842
vn -0.4317 -0.9020 -0.0000
vn -0.4234 -0.9020 -0.0842
vn -0.3989 -0.9020 -0.1652
vn -0.3590 -0.9020 -0.2399
vn -0.3053 -0.9020 -0.3053
vn -0.2399 -0.9020 -0.3590
vn -0.1652 -0.9020 -0.3989
vn -0.0842 -0.9020 -0.4234
vn -0.2893 -0.9555 -0.0576
vn -0.3239 -0.9439 -0.0644
vn -0.3303 -0.9439 -0.0000
vn -0.2950 -0.9555 -0.0000
vn 0.0930 -0.8790 -0.4676
vn -0.0000 -0.8790 -0.4768
vn -0.3371 -0.8790 -0.3371
vn -0.3964 -0.8790 -0.2649
vn 0.0930 -0.8790 0.4676
vn 0.1825 -0.8790 -0.4405
vn -0.2649 -0.8790 -0.3964
vn -0.0000 -0.8790 0.4768
vn 0.2649 -0.8790 -0.3964
vn -0.1825 -0.8790 -0.4405
vn -0.0930 -0.8790 0.4676
vn 0.3371 -0.8790 -0.3371
vn -0.0930 -0.8790 -0.4676
vn -0.1825 -0.8790 0.4405
vn 0.3964 -0.8790 -0.2649
vn -0.2649 -0.8790 0.3964
vn 0.4405 -0.8790 -0.1825
vn -0.3371 -0.8790 0.3371
vn 0.4676 -0.8790 -0.0930
vn -0.3964 -0.8790 0.2649
vn 0.4768 -0.8790 -0.0000
vn -0.4405 -0.8790 0.1825
vn 0.4676 -0.8790 0.0930
vn -0.4676 -0.8790 0.0930
vn 0.4405 -0.8790 0.1825
vn -0.4768 -0.8790 -0.0000
vn 0.3964 -0.8790 0.2649
vn -0.4676 -0.8790 -0.0930
vn 0.3371 -0.8790 0.3371
vn -0.4405 -0.8790 -0.1825
vn -0.0000 -0.9555 -0.2950
vn 0.0576 -0.9555 -0.2893
vn 0.1129 -0.9555 -0.2726
vn 0.1639 -0.9555 -0.2453
vn 0.2086 -0.9555 -0.2086
vn 0.2453 -0.9555 -0.1639
vn 0.2726 -0.9555 -0.1129
vn 0.2893 -0.9555 -0.0576
vn 0.2950 -0.9555 -0.0000
vn 0.2893 -0.9555 0.0576
vn 0.2726 -0.9555 0.1129
vn 0.2453 -0.9555 0.1639
vn 0.2086 -0.9555 0.2086
vn 0.1639 -0.9555 0.2453
vn 0.1129 -0.9555 0.2726
vn 0.0576 -0.9555 0.2893
vn -0.0000 -0.9555 0.2950
vn -0.0576 -0.9555 0.2893
vn -0.1129 -0.9555 0.2726
vn -0.1639 -0.9555 0.2453
vn -0.2086 -0.9555 0.2086
vn -0.2453 -0.9555 0.1639
vn -0.2726 -0.9555 0.1129
vn -0.2893 -0.9555 0.0576
vn -0.2726 -0.9555 -0.1129
vn -0.2453 -0.9555 -0.1639
vn -0.2086 -0.9555 -0.2086
vn -0.1639 -0.9555 -0.2453
vn -0.1129 -0.9555 -0.2726
vn -0.0576 -0.9555 -0.2893
vn 0.0644 -0.9439 -0.3239
vn 0.1264 -0.9439 -0.3051
vn 0.1835 -0.9439 -0.2746
vn 0.2335 -0.9439 -0.2335
vn 0.2746 -0.9439 -0.1835
vn 0.3051 -0.9439 -0.1264
vn 0.3239 -0.9439 -0.0644
vn 0.3303 -0.9439 -0.0000
vn 0.3239 -0.9439 0.0644
vn 0.3051 -0.9439 0.1264
vn 0.2746 -0.9439 0.1835
vn 0.2335 -0.9439 0.2335
vn 0.1835 -0.9439 0.2746
vn 0.1264 -0.9439 0.3051
vn 0.0644 -0.9439 0.3239
vn -0.0000 -0.9439 0.3303
vn -0.0644 -0.9439 0.3239
vn -0.1264 -0.9439 0.3051
vn -0.1835 -0.9439 0.2746
vn -0.2335 -0.9439 0.2335
vn -0.2746 -0.9439 0.1835
vn -0.3051 -0.9439 0.1264
vn -0.3239 -0.9439 0.0644
vn -0.3051 -0.9439 -0.1264
vn -0.2746 -0.9439 -0.1835
vn -0.2335 -0.9439 -0.2335
vn -0.1835 -0.9439 -0.2746
vn -0.1264 -0.9439 -0.3051
vn -0.0644 -0.9439 -0.3239
vn -0.0000 -0.9439 -0.3303
vn 0.1898 0.4423 -0.8765
vn 0.1898 0.4423 0.8765
vn 0.8765 0.4423 -0.1898
vn 0.7586 0.5708 0.3142
vn 0.4856 0.4423 0.7540
vn 0.4856 0.4423 -0.7540
vn 0.7586 0.5708 -0.3142
vn -0.1898 0.4423 -0.8765
vn 0.3142 0.5708 -0.7586
vt 0.778026 0.958706
vt 0.778026 0.982822
vt 0.747178 0.982822
vt 0.747178 0.958706
vt 0.717592 0.982822
vt 0.717592 0.958706
vt 0.688626 0.982822
vt 0.688626 0.958706
vt 0.658449 0.982822
vt 0.658449 0.958706
vt 0.627188 0.982822
vt 0.627188 0.958706
vt 0.598132 0.982822
vt 0.598132 0.958706
vt 0.568494 0.982822
vt 0.568494 0.958706
vt 0.538300 0.982822
vt 0.538300 0.958706
vt 0.508311 0.982822
vt 0.508311 0.958706
vt 0.477782 0.982822
vt 0.477782 0.958706
vt 0.447787 0.982822
vt 0.447787 0.958706
vt 0.418070 0.982822
vt 0.418070 0.958706
vt 0.389125 0.982822
vt 0.389125 0.958706
vt 0.357754 0.982822
vt 0.357754 0.958706
vt 0.328116 0.982822
vt 0.328116 0.958706
vt 0.298636 0.982822
vt 0.298636 0.958706
vt 0.269802 0.982822
vt 0.269802 0.958706
vt 0.238295 0.982822
vt 0.238295 0.958706
vt 0.208896 0.982822
vt 0.208896 0.958706
vt 0.179350 0.982822
vt 0.179350 0.958706
vt 0.150743 0.982822
vt 0.150743 0.958706
vt 0.119031 0.982822
vt 0.119031 0.958706
vt 0.089531 0.982822
vt 0.089531 0.958706
vt 0.060837 0.982822
vt 0.060837 0.958706
vt 0.032133 0.982822
vt 0.032133 0.958706
vt 0.984070 0.958706
vt 0.984070 0.982822
vt 0.955089 0.982822
vt 0.955089 0.958706
vt 0.926972 0.982822
vt 0.926972 0.958706
vt 0.897141 0.982822
vt 0.897141 0.958706
vt 0.866002 0.982822
vt 0.866002 0.958706
vt 0.836842 0.982822
vt 0.836842 0.958706
vt 0.807941 0.982822
vt 0.807941 0.958706
vt 0.807941 0.664885
vt 0.807941 0.847883
vt 0.778026 0.847883
vt 0.778026 0.664885
vt 0.807941 0.889564
vt 0.807941 0.916978
vt 0.778026 0.916978
vt 0.778026 0.889564
vt 0.836842 0.889564
vt 0.836842 0.916978
vt 0.150743 0.889564
vt 0.119031 0.889564
vt 0.119031 0.866892
vt 0.150743 0.866892
vt 0.866002 0.889564
vt 0.866002 0.916978
vt 0.897141 0.665485
vt 0.897141 0.848483
vt 0.866002 0.848483
vt 0.866002 0.665485
vt 0.897141 0.889564
vt 0.897141 0.916978
vt 0.926972 0.665485
vt 0.926972 0.848483
vt 0.926972 0.889564
vt 0.926972 0.916978
vt 0.955089 0.889564
vt 0.955089 0.916978
vt 0.807941 0.866892
vt 0.836842 0.866892
vt 0.984070 0.889564
vt 0.984070 0.916978
vt 0.060837 0.665103
vt 0.060837 0.848102
vt 0.032133 0.848102
vt 0.032133 0.665103
vt 0.060837 0.889564
vt 0.060837 0.916978
vt 0.032133 0.916978
vt 0.032133 0.889564
vt 0.089531 0.665103
vt 0.089531 0.848102
vt 0.089531 0.889564
vt 0.089531 0.916978
vt 0.627188 0.664661
vt 0.627188 0.847659
vt 0.614251 0.842540
vt 0.614251 0.664661
vt 0.119031 0.916978
vt 0.328116 0.846847
vt 0.328116 0.663849
vt 0.340412 0.663849
vt 0.340412 0.841728
vt 0.150743 0.916978
vt 0.179350 0.664426
vt 0.179350 0.847425
vt 0.150743 0.847425
vt 0.150743 0.664426
vt 0.179350 0.889564
vt 0.179350 0.916978
vt 0.208896 0.664426
vt 0.208896 0.847425
vt 0.208896 0.889564
vt 0.208896 0.916978
vt 0.020027 0.842982
vt 0.020027 0.665103
vt 0.238295 0.889564
vt 0.238295 0.916978
vt 0.269802 0.889564
vt 0.238295 0.866892
vt 0.269802 0.866892
vt 0.269802 0.916978
vt 0.298636 0.663849
vt 0.298636 0.846847
vt 0.269802 0.846847
vt 0.269802 0.663849
vt 0.298636 0.889564
vt 0.298636 0.916978
vt 0.328116 0.889564
vt 0.328116 0.916978
vt 0.926972 0.866892
vt 0.955089 0.866892
vt 0.357754 0.889564
vt 0.357754 0.916978
vt 0.389125 0.889564
vt 0.389125 0.916978
vt 0.418070 0.663782
vt 0.418070 0.846780
vt 0.389125 0.846780
vt 0.389125 0.663782
vt 0.418070 0.889564
vt 0.418070 0.916978
vt 0.447787 0.663782
vt 0.447787 0.846780
vt 0.447787 0.889564
vt 0.447787 0.916978
vt 0.477782 0.889564
vt 0.477782 0.916978
vt 0.508311 0.889564
vt 0.508311 0.916978
vt 0.538300 0.664278
vt 0.538300 0.847276
vt 0.508311 0.847277
vt 0.508311 0.664278
vt 0.538300 0.889564
vt 0.538300 0.916978
vt 0.568494 0.664278
vt 0.568494 0.847276
vt 0.568494 0.889564
vt 0.568494 0.916978
vt 0.598132 0.889564
vt 0.598132 0.916978
vt 0.357754 0.866892
vt 0.389125 0.866892
vt 0.627188 0.889564
vt 0.627188 0.916978
vt 0.658449 0.664661
vt 0.658449 0.847659
vt 0.658449 0.889564
vt 0.658449 0.916978
vt 0.688626 0.664661
vt 0.688626 0.847659
vt 0.688626 0.889564
vt 0.688626 0.916978
vt 0.089531 0.866892
vt 0.717592 0.889564
vt 0.717592 0.916978
vt 0.747178 0.664885
vt 0.747178 0.847883
vt 0.735746 0.842764
vt 0.735746 0.664885
vt 0.747178 0.889564
vt 0.747178 0.916978
vt 0.656803 0.283705
vt 0.641654 0.298854
vt 0.633744 0.289319
vt 0.647185 0.275897
vt 0.561561 0.324029
vt 0.583126 0.324029
vt 0.584675 0.339756
vt 0.560012 0.339755
vt 0.604277 0.319822
vt 0.608865 0.334944
vt 0.624201 0.311569
vt 0.631651 0.325506
vt 0.642132 0.299588
vt 0.652157 0.311803
vt 0.657382 0.284339
vt 0.669597 0.294364
vt 0.669363 0.266408
vt 0.683299 0.273857
vt 0.677615 0.246484
vt 0.692737 0.251071
vt 0.681823 0.225333
vt 0.697549 0.226882
vt 0.681823 0.203767
vt 0.697549 0.202218
vt 0.677615 0.182616
vt 0.692737 0.178029
vt 0.669363 0.162692
vt 0.683299 0.155243
vt 0.657381 0.144761
vt 0.669597 0.134736
vt 0.642132 0.129512
vt 0.652157 0.117297
vt 0.624201 0.117531
vt 0.631651 0.103594
vt 0.604277 0.109278
vt 0.608865 0.094156
vt 0.583126 0.105071
vt 0.584675 0.089345
vt 0.561561 0.105071
vt 0.560012 0.089345
vt 0.540410 0.109278
vt 0.535823 0.094156
vt 0.520486 0.117531
vt 0.513037 0.103594
vt 0.502555 0.129512
vt 0.492530 0.117296
vt 0.487306 0.144761
vt 0.475091 0.134736
vt 0.475325 0.162692
vt 0.461388 0.155243
vt 0.467072 0.182616
vt 0.451950 0.178029
vt 0.462865 0.203767
vt 0.447138 0.202218
vt 0.462865 0.225333
vt 0.447138 0.226882
vt 0.467072 0.246484
vt 0.451950 0.251071
vt 0.475325 0.266408
vt 0.461388 0.273857
vt 0.487306 0.284339
vt 0.475091 0.294364
vt 0.502555 0.299588
vt 0.492530 0.311803
vt 0.520486 0.311569
vt 0.513037 0.325506
vt 0.540410 0.319822
vt 0.535823 0.334944
vt 0.550563 0.202642
vt 0.553263 0.198599
vt 0.562142 0.205824
vt 0.560678 0.207989
vt 0.463565 0.203663
vt 0.467744 0.182651
vt 0.479618 0.186183
vt 0.475899 0.204811
vt 0.520807 0.117993
vt 0.540600 0.109795
vt 0.544259 0.121630
vt 0.526705 0.128887
vt 0.668705 0.265891
vt 0.657749 0.260110
vt 0.463565 0.225086
vt 0.475886 0.223806
vt 0.502994 0.129896
vt 0.510904 0.139430
vt 0.676904 0.246099
vt 0.665030 0.242566
vt 0.467744 0.246098
vt 0.479580 0.242439
vt 0.487845 0.145044
vt 0.497463 0.152852
vt 0.681083 0.225086
vt 0.668748 0.223938
vt 0.475943 0.265891
vt 0.486837 0.259994
vt 0.475943 0.162858
vt 0.486899 0.168639
vt 0.681083 0.203663
vt 0.668761 0.204943
vt 0.487845 0.283705
vt 0.497379 0.275795
vt 0.676904 0.182651
vt 0.665068 0.186310
vt 0.502994 0.298854
vt 0.510802 0.289236
vt 0.668705 0.162858
vt 0.657811 0.168756
vt 0.520807 0.310756
vt 0.526588 0.299800
vt 0.656803 0.145044
vt 0.647269 0.152955
vt 0.540600 0.318954
vt 0.544133 0.307081
vt 0.641654 0.129896
vt 0.633846 0.139513
vt 0.561612 0.323134
vt 0.562760 0.310799
vt 0.623841 0.117993
vt 0.618059 0.128950
vt 0.583036 0.323134
vt 0.581756 0.310812
vt 0.604048 0.109795
vt 0.600515 0.121668
vt 0.604048 0.318955
vt 0.600389 0.307119
vt 0.583036 0.105615
vt 0.581887 0.117950
vt 0.623841 0.310756
vt 0.617943 0.299862
vt 0.561612 0.105615
vt 0.562892 0.117937
vt 0.547718 0.206877
vt 0.546729 0.211822
vt 0.546722 0.216864
vt 0.547700 0.221811
vt 0.549624 0.226472
vt 0.552420 0.230669
vt 0.555981 0.234238
vt 0.560171 0.237045
vt 0.564827 0.238980
vt 0.569771 0.239970
vt 0.574814 0.239976
vt 0.579760 0.238999
vt 0.584422 0.237075
vt 0.588618 0.234279
vt 0.592187 0.230717
vt 0.594994 0.226528
vt 0.596929 0.221872
vt 0.597919 0.216927
vt 0.597925 0.211885
vt 0.596948 0.206938
vt 0.595024 0.202277
vt 0.592227 0.198081
vt 0.588666 0.194511
vt 0.584477 0.191704
vt 0.579821 0.189769
vt 0.574877 0.188779
vt 0.569834 0.188773
vt 0.564887 0.189750
vt 0.560226 0.191674
vt 0.556030 0.194471
vt 0.552460 0.198032
vt 0.549654 0.202221
vt 0.566110 0.226103
vt 0.563937 0.224632
vt 0.562097 0.222764
vt 0.560659 0.220572
vt 0.559653 0.218150
vt 0.559144 0.215579
vt 0.559149 0.212962
vt 0.559668 0.210399
vt 0.564002 0.203987
vt 0.566188 0.202551
vt 0.568613 0.201568
vt 0.571184 0.201080
vt 0.573803 0.201106
vt 0.576367 0.201646
vt 0.578795 0.202649
vt 0.580977 0.204109
vt 0.582826 0.205966
vt 0.584274 0.208148
vt 0.585272 0.210567
vt 0.585778 0.213139
vt 0.585768 0.215759
vt 0.585244 0.218324
vt 0.584233 0.220741
vt 0.582769 0.222911
vt 0.580908 0.224753
vt 0.578720 0.226194
vt 0.576294 0.227183
vt 0.573720 0.227676
vt 0.571099 0.227655
vt 0.568530 0.227120
vt 0.597154 0.211996
vt 0.597154 0.216840
vt 0.548708 0.207132
vt 0.596233 0.207219
vt 0.547765 0.211892
vt 0.594365 0.202712
vt 0.560721 0.236250
vt 0.556669 0.233529
vt 0.547767 0.216739
vt 0.591656 0.198666
vt 0.565224 0.238127
vt 0.548704 0.221487
vt 0.588218 0.195234
vt 0.570006 0.239088
vt 0.550528 0.225995
vt 0.584190 0.192538
vt 0.574883 0.239096
vt 0.553227 0.230067
vt 0.579708 0.190641
vt 0.579666 0.238150
vt 0.574921 0.189673
vt 0.584169 0.236287
vt 0.570041 0.189660
vt 0.588219 0.233581
vt 0.565258 0.190601
vt 0.591659 0.230137
vt 0.560754 0.192458
vt 0.594357 0.226090
vt 0.556704 0.195160
vt 0.596211 0.221600
vt 0.298634 0.175299
vt 0.298634 0.341392
vt 0.277368 0.341392
vt 0.277368 0.175299
vt 0.319900 0.175299
vt 0.319900 0.341392
vt 0.352517 0.175299
vt 0.352517 0.341392
vt 0.331251 0.341392
vt 0.331251 0.175299
vt 0.373784 0.175299
vt 0.373784 0.341392
vt 0.405663 0.175299
vt 0.405663 0.341392
vt 0.384396 0.341392
vt 0.384396 0.175299
vt 0.426929 0.175299
vt 0.426929 0.341392
vt 0.034859 0.174884
vt 0.034859 0.340977
vt 0.013593 0.340977
vt 0.013593 0.174884
vt 0.056125 0.174884
vt 0.056125 0.340977
vt 0.086784 0.174884
vt 0.086784 0.340977
vt 0.065518 0.340977
vt 0.065518 0.174884
vt 0.108050 0.174884
vt 0.108051 0.340977
vt 0.140347 0.174884
vt 0.140347 0.340977
vt 0.119081 0.340977
vt 0.119081 0.174884
vt 0.161613 0.174884
vt 0.161613 0.340977
vt 0.193868 0.174884
vt 0.193868 0.340977
vt 0.172601 0.340977
vt 0.172602 0.174884
vt 0.215134 0.174884
vt 0.215134 0.340977
vt 0.246500 0.175299
vt 0.246500 0.341392
vt 0.225234 0.341392
vt 0.225234 0.175299
vt 0.267766 0.175299
vt 0.267766 0.341392
vt 0.853875 0.843364
vt 0.853875 0.665485
vt 0.984070 0.866892
vt 0.221739 0.664426
vt 0.221739 0.842306
vt 0.496428 0.842157
vt 0.496428 0.664278
vt 0.866002 0.866892
vt 0.688626 0.866892
vt 0.717592 0.866892
vt 0.101204 0.665103
vt 0.101204 0.842982
vt 0.376573 0.841661
vt 0.376573 0.663782
vt 0.701373 0.664661
vt 0.701373 0.842540
vt 0.568494 0.866892
vt 0.598132 0.866892
vt 0.447787 0.866892
vt 0.477782 0.866892
vt 0.747178 0.866892
vt 0.939510 0.665485
vt 0.939510 0.843364
vt 0.257749 0.841728
vt 0.257749 0.663849
vt 0.580577 0.664278
vt 0.580577 0.842157
vt 0.328116 0.866892
vt 0.627188 0.866892
vt 0.208896 0.866892
vt 0.508311 0.866892
vt 0.819895 0.664885
vt 0.819895 0.842764
vt 0.139076 0.842306
vt 0.139076 0.664426
vt 0.459236 0.663782
vt 0.459236 0.841661
vt 0.778026 0.382356
vt 0.747178 0.382356
vt 0.747178 0.359738
vt 0.778026 0.359738
vt 0.718429 0.382356
vt 0.718429 0.359738
vt 0.688626 0.382356
vt 0.688626 0.359738
vt 0.658449 0.382356
vt 0.658449 0.359738
vt 0.627188 0.382356
vt 0.627188 0.359738
vt 0.598970 0.382356
vt 0.598970 0.359738
vt 0.568494 0.382356
vt 0.568494 0.359738
vt 0.538300 0.382356
vt 0.538300 0.359738
vt 0.508311 0.382356
vt 0.508311 0.359738
vt 0.478619 0.382356
vt 0.478619 0.359738
vt 0.447787 0.382356
vt 0.447787 0.359738
vt 0.418070 0.382356
vt 0.418070 0.359738
vt 0.389125 0.382356
vt 0.389125 0.359738
vt 0.358591 0.382356
vt 0.358591 0.359738
vt 0.328116 0.382356
vt 0.328116 0.359738
vt 0.298636 0.382356
vt 0.298636 0.359738
vt 0.269802 0.382356
vt 0.269802 0.359738
vt 0.239132 0.382356
vt 0.239132 0.359738
vt 0.208896 0.382356
vt 0.208896 0.359738
vt 0.179350 0.382356
vt 0.179350 0.359738
vt 0.150743 0.382356
vt 0.150743 0.359738
vt 0.119868 0.382356
vt 0.119868 0.359738
vt 0.089531 0.382356
vt 0.089531 0.359738
vt 0.060837 0.382356
vt 0.060837 0.359738
vt 0.032133 0.382356
vt 0.032133 0.359738
vt 0.984906 0.382356
vt 0.955926 0.382356
vt 0.955926 0.359738
vt 0.984906 0.359738
vt 0.926972 0.382356
vt 0.926972 0.359738
vt 0.897141 0.382356
vt 0.897141 0.359738
vt 0.866002 0.382356
vt 0.866002 0.359738
vt 0.837679 0.382356
vt 0.837679 0.359738
vt 0.807941 0.382356
vt 0.807941 0.359738
vt 0.778026 0.481887
vt 0.807941 0.481887
vt 0.807941 0.442510
vt 0.778026 0.442510
vt 0.778026 0.424084
vt 0.807941 0.424084
vt 0.837679 0.442510
vt 0.837679 0.424084
vt 0.150743 0.442510
vt 0.150743 0.462185
vt 0.119868 0.462185
vt 0.119868 0.442510
vt 0.866002 0.442510
vt 0.866002 0.424084
vt 0.866002 0.482487
vt 0.897141 0.482487
vt 0.897141 0.442510
vt 0.897141 0.424084
vt 0.926972 0.482487
vt 0.926972 0.442510
vt 0.926972 0.424084
vt 0.955926 0.442510
vt 0.955926 0.424084
vt 0.837679 0.462185
vt 0.807941 0.462185
vt 0.984906 0.442510
vt 0.984906 0.424084
vt 0.032133 0.482105
vt 0.060837 0.482105
vt 0.060837 0.442510
vt 0.032133 0.442510
vt 0.032133 0.424084
vt 0.060837 0.424084
vt 0.089531 0.482105
vt 0.089531 0.442510
vt 0.089531 0.424084
vt 0.614251 0.486782
vt 0.627188 0.481663
vt 0.119868 0.424084
vt 0.328116 0.480851
vt 0.340412 0.485970
vt 0.150743 0.424084
vt 0.150743 0.481428
vt 0.179350 0.481428
vt 0.179350 0.442510
vt 0.179350 0.424084
vt 0.208896 0.481428
vt 0.208896 0.442510
vt 0.208896 0.424084
vt 0.020027 0.487224
vt 0.239132 0.442510
vt 0.239132 0.424084
vt 0.269802 0.442510
vt 0.269802 0.462185
vt 0.239132 0.462185
vt 0.269802 0.424084
vt 0.269802 0.480851
vt 0.298636 0.480851
vt 0.298636 0.442510
vt 0.298636 0.424084
vt 0.328116 0.442510
vt 0.328116 0.424084
vt 0.955926 0.462185
vt 0.926972 0.462185
vt 0.358591 0.442510
vt 0.358591 0.424084
vt 0.389125 0.442510
vt 0.389125 0.424084
vt 0.389125 0.480784
vt 0.418070 0.480784
vt 0.418070 0.442510
vt 0.418070 0.424084
vt 0.447787 0.480784
vt 0.447787 0.442510
vt 0.447787 0.424084
vt 0.478619 0.442510
vt 0.478619 0.424084
vt 0.508311 0.442510
vt 0.508311 0.424084
vt 0.508311 0.481280
vt 0.538300 0.481280
vt 0.538300 0.442510
vt 0.538300 0.424084
vt 0.568494 0.481280
vt 0.568494 0.442510
vt 0.568494 0.424084
vt 0.598970 0.442510
vt 0.598970 0.424084
vt 0.389125 0.462185
vt 0.358591 0.462185
vt 0.627188 0.442510
vt 0.627188 0.424084
vt 0.658449 0.481663
vt 0.658449 0.442510
vt 0.658449 0.424084
vt 0.688626 0.481663
vt 0.688626 0.442510
vt 0.688626 0.424084
vt 0.089531 0.462185
vt 0.718429 0.442510
vt 0.718429 0.424084
vt 0.735746 0.487006
vt 0.747178 0.481887
vt 0.747178 0.442510
vt 0.747178 0.424084
vt 0.820457 0.317323
vt 0.824105 0.305525
vt 0.842678 0.309207
vt 0.841402 0.321489
vt 0.800242 0.309824
vt 0.792793 0.323760
vt 0.772286 0.310058
vt 0.782311 0.297842
vt 0.754846 0.292618
vt 0.767062 0.282593
vt 0.741144 0.272111
vt 0.755081 0.264662
vt 0.731706 0.249326
vt 0.746828 0.244738
vt 0.726894 0.225136
vt 0.742621 0.223587
vt 0.726894 0.200473
vt 0.742621 0.202022
vt 0.731706 0.176284
vt 0.746828 0.180871
vt 0.741144 0.153498
vt 0.755081 0.160947
vt 0.754846 0.132991
vt 0.767062 0.143016
vt 0.772286 0.115551
vt 0.782311 0.127767
vt 0.792793 0.101849
vt 0.800242 0.115786
vt 0.815579 0.092411
vt 0.820166 0.107533
vt 0.839768 0.087599
vt 0.841317 0.103326
vt 0.864432 0.087599
vt 0.862883 0.103326
vt 0.888621 0.092411
vt 0.884034 0.107533
vt 0.911407 0.101849
vt 0.903958 0.115786
vt 0.931914 0.115551
vt 0.921889 0.127767
vt 0.949353 0.132991
vt 0.937138 0.143016
vt 0.963055 0.153498
vt 0.949119 0.160947
vt 0.972494 0.176284
vt 0.957371 0.180871
vt 0.977305 0.200473
vt 0.961579 0.202022
vt 0.977305 0.225136
vt 0.961579 0.223587
vt 0.972494 0.249326
vt 0.957372 0.244738
vt 0.963055 0.272111
vt 0.949119 0.264662
vt 0.949353 0.292618
vt 0.937138 0.282593
vt 0.931914 0.310058
vt 0.921889 0.297842
vt 0.911407 0.323760
vt 0.903958 0.309824
vt 0.888621 0.333198
vt 0.884034 0.318076
vt 0.864432 0.338010
vt 0.862882 0.322283
vt 0.839768 0.338010
vt 0.841317 0.322284
vt 0.815579 0.333198
vt 0.820166 0.318076
vt 0.854481 0.188571
vt 0.853286 0.199924
vt 0.850677 0.199937
vt 0.849632 0.188556
vt 0.936290 0.143968
vt 0.926702 0.151751
vt 0.913304 0.138372
vt 0.921189 0.128868
vt 0.841403 0.104665
vt 0.842548 0.116960
vt 0.823979 0.120667
vt 0.820458 0.108831
vt 0.800728 0.309150
vt 0.806607 0.298291
vt 0.948154 0.161725
vt 0.937232 0.167488
vt 0.862758 0.104665
vt 0.861482 0.116947
vt 0.782972 0.297286
vt 0.790856 0.287782
vt 0.956326 0.181454
vt 0.944490 0.184976
vt 0.883703 0.108831
vt 0.880055 0.120629
vt 0.767871 0.282186
vt 0.777458 0.274403
vt 0.960492 0.202399
vt 0.948197 0.203544
vt 0.903433 0.117004
vt 0.897554 0.127863
vt 0.756007 0.264429
vt 0.766928 0.258666
vt 0.960492 0.223755
vt 0.948210 0.222479
vt 0.747834 0.244700
vt 0.759670 0.241178
vt 0.956326 0.244700
vt 0.944528 0.241052
vt 0.743668 0.223755
vt 0.755964 0.222610
vt 0.948154 0.264429
vt 0.937294 0.258550
vt 0.743668 0.202399
vt 0.755951 0.203675
vt 0.936289 0.282186
vt 0.926786 0.274301
vt 0.747834 0.181454
vt 0.759632 0.185102
vt 0.921189 0.297286
vt 0.913406 0.287699
vt 0.756007 0.161724
vt 0.766866 0.167603
vt 0.903432 0.309151
vt 0.897670 0.298229
vt 0.767871 0.143968
vt 0.777375 0.151853
vt 0.883703 0.317323
vt 0.880181 0.305487
vt 0.782972 0.128868
vt 0.790754 0.138455
vt 0.862758 0.321489
vt 0.861613 0.309194
vt 0.800728 0.117003
vt 0.806491 0.127925
vt 0.868322 0.193237
vt 0.871880 0.196787
vt 0.874678 0.200963
vt 0.876607 0.205604
vt 0.877594 0.210533
vt 0.877600 0.215559
vt 0.876625 0.220490
vt 0.874708 0.225136
vt 0.871920 0.229319
vt 0.868371 0.232877
vt 0.864195 0.235675
vt 0.859553 0.237604
vt 0.854625 0.238591
vt 0.849599 0.238597
vt 0.844668 0.237622
vt 0.840022 0.235704
vt 0.835839 0.232917
vt 0.832280 0.229367
vt 0.829483 0.225191
vt 0.827554 0.220550
vt 0.826567 0.215621
vt 0.826560 0.210595
vt 0.827535 0.205664
vt 0.829453 0.201018
vt 0.832240 0.196835
vt 0.835790 0.193277
vt 0.839966 0.190479
vt 0.844607 0.188550
vt 0.849536 0.187563
vt 0.854562 0.187557
vt 0.859493 0.188532
vt 0.864139 0.190450
vt 0.865249 0.214466
vt 0.864755 0.217031
vt 0.863772 0.219448
vt 0.862334 0.221625
vt 0.860499 0.223478
vt 0.858336 0.224934
vt 0.855929 0.225938
vt 0.853369 0.226452
vt 0.850759 0.226470
vt 0.848199 0.225975
vt 0.845784 0.224988
vt 0.843607 0.223546
vt 0.841759 0.221700
vt 0.840309 0.219531
vt 0.839299 0.217118
vt 0.838782 0.214551
vt 0.838764 0.211934
vt 0.839262 0.209364
vt 0.840250 0.206946
vt 0.841694 0.204768
vt 0.843534 0.202914
vt 0.845703 0.201457
vt 0.848114 0.200451
vt 0.855844 0.200423
vt 0.858255 0.201413
vt 0.860425 0.202857
vt 0.862268 0.204703
vt 0.863713 0.206876
vt 0.864718 0.209287
vt 0.865230 0.211853
vt 0.836363 0.232340
vt 0.840379 0.235019
vt 0.859227 0.189531
vt 0.832912 0.228934
vt 0.863691 0.191397
vt 0.830206 0.224892
vt 0.876630 0.215639
vt 0.876630 0.210781
vt 0.867700 0.194092
vt 0.828346 0.220405
vt 0.875682 0.220402
vt 0.871106 0.197506
vt 0.827397 0.215649
vt 0.873822 0.224886
vt 0.873819 0.201521
vt 0.827389 0.210806
vt 0.871124 0.228919
vt 0.875682 0.206015
vt 0.828301 0.206028
vt 0.867690 0.232345
vt 0.830164 0.201514
vt 0.863656 0.235032
vt 0.832875 0.197461
vt 0.859177 0.236880
vt 0.836324 0.194024
vt 0.854428 0.237818
vt 0.840375 0.191332
vt 0.849588 0.237815
vt 0.844870 0.189486
vt 0.844844 0.236869
vt 0.277368 0.009206
vt 0.298634 0.009206
vt 0.319900 0.009206
vt 0.331251 0.009206
vt 0.352517 0.009206
vt 0.373783 0.009206
vt 0.384397 0.009206
vt 0.405663 0.009206
vt 0.426929 0.009206
vt 0.013593 0.008791
vt 0.034859 0.008791
vt 0.056125 0.008791
vt 0.065518 0.008791
vt 0.086784 0.008791
vt 0.108050 0.008791
vt 0.119081 0.008791
vt 0.140347 0.008791
vt 0.161613 0.008791
vt 0.172602 0.008791
vt 0.193868 0.008791
vt 0.215134 0.008791
vt 0.225234 0.009206
vt 0.246500 0.009206
vt 0.267766 0.009206
vt 0.853875 0.487606
vt 0.984906 0.462185
vt 0.221739 0.486547
vt 0.496428 0.486399
vt 0.866002 0.462185
vt 0.718429 0.462185
vt 0.688626 0.462185
vt 0.101204 0.487224
vt 0.376573 0.485903
vt 0.701373 0.486782
vt 0.598970 0.462185
vt 0.568494 0.462185
vt 0.478619 0.462185
vt 0.447787 0.462185
vt 0.747178 0.462185
vt 0.939510 0.487606
vt 0.257749 0.485970
vt 0.580577 0.486399
vt 0.328116 0.462185
vt 0.627188 0.462185
vt 0.208896 0.462185
vt 0.508311 0.462185
vt 0.819895 0.487006
vt 0.139076 0.486547
vt 0.459236 0.485903
s 1
usemtl Power_Cell
f 59/1/1 158/2/2 157/3/3 60/4/4
f 60/4/4 157/3/3 159/5/5 63/6/6
f 63/6/6 159/5/5 160/7/7 66/8/8
f 66/8/8 160/7/7 161/9/9 69/10/10
f 69/10/10 161/9/9 162/11/11 72/12/12
f 72/12/12 162/11/11 163/13/13 75/14/14
f 75/14/14 163/13/13 164/15/15 78/16/16
f 78/16/16 164/15/15 165/17/17 81/18/18
f 81/18/18 165/17/17 166/19/19 84/20/20
f 84/20/20 166/19/19 167/21/21 87/22/22
f 87/22/22 167/21/21 168/23/23 90/24/24
f 90/24/24 168/23/23 169/25/25 93/26/26
f 93/26/26 169/25/25 170/27/27 96/28/28
f 96/28/28 170/27/27 171/29/29 99/30/30
f 99/30/30 171/29/29 172/31/31 102/32/32
f 102/32/32 172/31/31 173/33/33 105/34/34
f 105/34/34 173/33/33 174/35/35 108/36/36
f 108/36/36 174/35/35 175/37/37 111/38/38
f 111/38/38 175/37/37 176/39/39 114/40/40
f 114/40/40 176/39/39 177/41/41 117/42/42
f 117/42/42 177/41/41 178/43/43 120/44/44
f 120/44/44 178/43/43 180/45/45 123/46/46
f 123/46/46 180/45/45 181/47/47 126/48/48
f 126/48/48 181/47/47 179/49/49 129/50/50
f 129/50/50 179/49/49 182/51/51 132/52/52
f 132/53/52 182/54/51 183/55/53 135/56/54
f 135/56/54 183/55/53 184/57/55 138/58/56
f 138/58/56 184/57/55 185/59/57 141/60/58
f 141/60/58 185/59/57 186/61/59 144/62/60
f 144/62/60 186/61/59 187/63/61 147/64/62
f 147/64/62 187/63/61 188/65/63 150/66/64
f 150/66/64 188/65/63 158/2/2 59/1/1
f 55/67/65 152/68/66 57/69/67 1/70/68
f 152/71/66 151/72/69 58/73/70 57/74/67
f 151/72/69 150/66/64 59/1/1 58/73/70
f 149/75/71 148/76/72 151/72/69 152/71/66
f 148/76/72 147/64/62 150/66/64 151/72/69
f 122/77/73 125/78/74 325/79/75 324/80/76
f 146/81/77 145/82/78 148/76/72 149/75/71
f 145/82/78 144/62/60 147/64/62 148/76/72
f 50/83/79 143/84/80 146/85/77 52/86/81
f 143/87/80 142/88/82 145/82/78 146/81/77
f 142/88/82 141/60/58 144/62/60 145/82/78
f 48/89/83 140/90/84 143/84/80 50/83/79
f 140/91/84 139/92/85 142/88/82 143/87/80
f 139/92/85 138/58/56 141/60/58 142/88/82
f 137/93/86 136/94/87 139/92/85 140/91/84
f 136/94/87 135/56/54 138/58/56 139/92/85
f 149/75/71 152/71/66 332/95/88 331/96/89
f 134/97/90 133/98/91 136/94/87 137/93/86
f 133/98/91 132/53/52 135/56/54 136/94/87
f 43/99/92 131/100/93 134/101/90 45/102/94
f 131/103/93 130/104/95 133/105/91 134/106/90
f 130/104/95 129/50/50 132/52/52 133/105/91
f 41/107/96 128/108/97 131/100/93 43/99/92
f 128/109/97 127/110/98 130/104/95 131/103/93
f 127/110/98 126/48/48 129/50/50 130/104/95
f 10/111/99 74/112/100 312/113/101 288/114/102
f 125/78/74 124/115/103 127/110/98 128/109/97
f 124/115/103 123/46/46 126/48/48 127/110/98
f 104/116/104 27/117/105 296/118/106 320/119/107
f 122/77/73 121/120/108 124/115/103 125/78/74
f 121/120/108 120/44/44 123/46/46 124/115/103
f 36/121/109 119/122/110 122/123/73 38/124/111
f 119/125/110 118/126/112 121/120/108 122/77/73
f 118/126/112 117/42/42 120/44/44 121/120/108
f 34/127/113 116/128/114 119/122/110 36/121/109
f 116/129/114 115/130/115 118/126/112 119/125/110
f 115/130/115 114/40/40 117/42/42 118/126/112
f 45/102/94 134/101/90 327/131/116 303/132/117
f 113/133/118 112/134/119 115/130/115 116/129/114
f 112/134/119 111/38/38 114/40/40 115/130/115
f 110/135/120 113/133/118 322/136/121 321/137/122
f 110/135/120 109/138/123 112/134/119 113/133/118
f 109/138/123 108/36/36 111/38/38 112/134/119
f 29/139/124 107/140/125 110/141/120 31/142/126
f 107/143/125 106/144/127 109/138/123 110/135/120
f 106/144/127 105/34/34 108/36/36 109/138/123
f 27/117/105 104/116/104 107/140/125 29/139/124
f 104/145/104 103/146/128 106/144/127 107/143/125
f 103/146/128 102/32/32 105/34/34 106/144/127
f 137/93/86 140/91/84 329/147/129 328/148/130
f 101/149/131 100/150/132 103/146/128 104/145/104
f 100/150/132 99/30/30 102/32/32 103/146/128
f 98/151/133 97/152/134 100/150/132 101/149/131
f 97/152/134 96/28/28 99/30/30 100/150/132
f 22/153/135 95/154/136 98/155/133 24/156/137
f 95/157/136 94/158/138 97/152/134 98/151/133
f 94/158/138 93/26/26 96/28/28 97/152/134
f 20/159/139 92/160/140 95/154/136 22/153/135
f 92/161/140 91/162/141 94/158/138 95/157/136
f 91/162/141 90/24/24 93/26/26 94/158/138
f 89/163/142 88/164/143 91/162/141 92/161/140
f 88/164/143 87/22/22 90/24/24 91/162/141
f 86/165/144 85/166/145 88/164/143 89/163/142
f 85/166/145 84/20/20 87/22/22 88/164/143
f 15/167/146 83/168/147 86/169/144 17/170/148
f 83/171/147 82/172/149 85/166/145 86/165/144
f 82/172/149 81/18/18 84/20/20 85/166/145
f 13/173/150 80/174/151 83/168/147 15/167/146
f 80/175/151 79/176/152 82/172/149 83/171/147
f 79/176/152 78/16/16 81/18/18 82/172/149
f 77/177/153 76/178/154 79/176/152 80/175/151
f 76/178/154 75/14/14 78/16/16 79/176/152
f 98/151/133 101/149/131 319/179/155 318/180/156
f 74/181/100 73/182/157 76/178/154 77/177/153
f 73/182/157 72/12/12 75/14/14 76/178/154
f 8/183/158 71/184/159 74/112/100 10/111/99
f 71/185/159 70/186/160 73/182/157 74/181/100
f 70/186/160 69/10/10 72/12/12 73/182/157
f 6/187/161 68/188/162 71/184/159 8/183/158
f 68/189/162 67/190/163 70/186/160 71/185/159
f 67/190/163 66/8/8 69/10/10 70/186/160
f 125/78/74 128/109/97 326/191/164 325/79/75
f 65/192/165 64/193/166 67/190/163 68/189/162
f 64/193/166 63/6/6 66/8/8 67/190/163
f 3/194/167 62/195/168 309/196/169 285/197/170
f 62/198/168 61/199/171 64/193/166 65/192/165
f 61/199/171 60/4/4 63/6/6 64/193/166
f 1/70/68 57/69/67 62/195/168 3/194/167
f 57/74/67 58/73/70 61/199/171 62/198/168
f 58/73/70 59/1/1 60/4/4 61/199/171
f 26/200/172 25/201/173 234/202/174 235/203/175
f 2/204/176 4/205/177 157/206/3 158/207/2
f 4/205/177 5/208/178 159/209/5 157/206/3
f 5/208/178 7/210/179 160/211/7 159/209/5
f 7/210/179 9/212/180 161/213/9 160/211/7
f 9/212/180 11/214/181 162/215/11 161/213/9
f 11/214/181 12/216/182 163/217/13 162/215/11
f 12/216/182 14/218/183 164/219/15 163/217/13
f 14/218/183 16/220/184 165/221/17 164/219/15
f 16/220/184 18/222/185 166/223/19 165/221/17
f 18/222/185 19/224/186 167/225/21 166/223/19
f 19/224/186 21/226/187 168/227/23 167/225/21
f 21/226/187 23/228/188 169/229/25 168/227/23
f 23/228/188 25/230/173 170/231/27 169/229/25
f 25/230/173 26/232/172 171/233/29 170/231/27
f 26/232/172 28/234/189 172/235/31 171/233/29
f 28/234/189 30/236/190 173/237/33 172/235/31
f 30/236/190 32/238/191 174/239/35 173/237/33
f 32/238/191 33/240/192 175/241/37 174/239/35
f 33/240/192 35/242/193 176/243/39 175/241/37
f 35/242/193 37/244/194 177/245/41 176/243/39
f 37/244/194 39/246/195 178/247/43 177/245/41
f 39/246/195 155/248/196 180/249/45 178/247/43
f 155/248/196 154/250/197 181/251/47 180/249/45
f 154/250/197 44/252/198 179/253/49 181/251/47
f 44/252/198 46/254/199 182/255/51 179/253/49
f 46/254/199 47/256/200 183/257/53 182/255/51
f 47/256/200 49/258/201 184/259/55 183/257/53
f 49/258/201 51/260/202 185/261/57 184/259/55
f 51/260/202 53/262/203 186/263/59 185/261/57
f 53/262/203 54/264/204 187/265/61 186/263/59
f 54/264/204 56/266/205 188/267/63 187/265/61
f 56/266/205 2/204/176 158/207/2 188/267/63
f 214/268/206 213/269/207 277/270/208 278/271/209
f 4/272/177 2/273/176 222/274/210 221/275/211
f 51/276/202 49/277/201 248/278/212 249/279/213
f 28/280/189 26/200/172 235/203/175 236/281/214
f 5/282/178 4/272/177 221/275/211 223/283/215
f 53/284/203 51/276/202 249/279/213 250/285/216
f 30/286/190 28/280/189 236/281/214 237/287/217
f 7/288/179 5/282/178 223/283/215 224/289/218
f 54/290/204 53/284/203 250/285/216 251/291/219
f 32/292/191 30/286/190 237/287/217 238/293/220
f 9/294/180 7/288/179 224/289/218 225/295/221
f 56/296/205 54/290/204 251/291/219 252/297/222
f 33/298/192 32/292/191 238/293/220 239/299/223
f 11/300/181 9/294/180 225/295/221 226/301/224
f 2/273/176 56/296/205 252/297/222 222/274/210
f 35/302/193 33/298/192 239/299/223 240/303/225
f 12/304/182 11/300/181 226/301/224 227/305/226
f 37/306/194 35/302/193 240/303/225 241/307/227
f 14/308/183 12/304/182 227/305/226 228/309/228
f 39/310/195 37/306/194 241/307/227 242/311/229
f 16/312/184 14/308/183 228/309/228 229/313/230
f 155/314/196 39/310/195 242/311/229 243/315/231
f 18/316/185 16/312/184 229/313/230 230/317/232
f 154/318/197 155/314/196 243/315/231 244/319/233
f 19/320/186 18/316/185 230/317/232 231/321/234
f 44/322/198 154/318/197 244/319/233 245/323/235
f 21/324/187 19/320/186 231/321/234 232/325/236
f 46/326/199 44/322/198 245/323/235 246/327/237
f 23/328/188 21/324/187 232/325/236 233/329/238
f 47/330/200 46/326/199 246/327/237 247/331/239
f 25/201/173 23/328/188 233/329/238 234/202/174
f 49/277/201 47/330/200 247/331/239 248/278/212
f 190/332/240 189/333/241 221/275/211 222/274/210
f 189/333/241 191/334/242 223/283/215 221/275/211
f 191/334/242 192/335/243 224/289/218 223/283/215
f 192/335/243 193/336/244 225/295/221 224/289/218
f 193/336/244 194/337/245 226/301/224 225/295/221
f 194/337/245 195/338/246 227/305/226 226/301/224
f 195/338/246 196/339/247 228/309/228 227/305/226
f 196/339/247 197/340/248 229/313/230 228/309/228
f 197/340/248 198/341/249 230/317/232 229/313/230
f 198/341/249 199/342/250 231/321/234 230/317/232
f 199/342/250 200/343/251 232/325/236 231/321/234
f 200/343/251 201/344/252 233/329/238 232/325/236
f 201/344/252 202/345/253 234/202/174 233/329/238
f 202/345/253 203/346/254 235/203/175 234/202/174
f 203/346/254 204/347/255 236/281/214 235/203/175
f 204/347/255 205/348/256 237/287/217 236/281/214
f 205/348/256 206/349/257 238/293/220 237/287/217
f 206/349/257 207/350/258 239/299/223 238/293/220
f 207/350/258 208/351/259 240/303/225 239/299/223
f 208/351/259 209/352/260 241/307/227 240/303/225
f 209/352/260 210/353/261 242/311/229 241/307/227
f 210/353/261 211/354/262 243/315/231 242/311/229
f 211/354/262 212/355/263 244/319/233 243/315/231
f 212/355/263 213/356/207 245/323/235 244/319/233
f 213/356/207 214/357/206 246/327/237 245/323/235
f 214/357/206 215/358/264 247/331/239 246/327/237
f 215/358/264 216/359/265 248/278/212 247/331/239
f 216/359/265 217/360/266 249/279/213 248/278/212
f 217/360/266 218/361/267 250/285/216 249/279/213
f 218/361/267 219/362/268 251/291/219 250/285/216
f 219/362/268 220/363/269 252/297/222 251/291/219
f 220/363/269 190/332/240 222/274/210 252/297/222
f 253/364/270 254/365/271 284/366/272 283/367/273 282/368/274 281/369/275 280/370/276 279/371/277 278/271/209 277/270/208 276/372/278 275/373/279 274/374/280 273/375/281 272/376/282 271/377/283 270/378/284 269/379/285 268/380/286 267/381/287 266/382/288 265/383/289 264/384/290 263/385/291 262/386/292 261/387/293 260/388/294 259/389/295 258/390/296 257/391/297 256/392/298 255/393/299
f 201/394/252 200/395/251 264/384/290 265/383/289
f 215/396/264 214/268/206 278/271/209 279/371/277
f 202/397/253 201/394/252 265/383/289 266/382/288
f 216/398/265 215/396/264 279/371/277 280/370/276
f 203/399/254 202/397/253 266/382/288 267/381/287
f 189/400/241 190/401/240 254/365/271 253/364/270
f 217/402/266 216/398/265 280/370/276 281/369/275
f 204/403/255 203/399/254 267/381/287 268/380/286
f 191/404/242 189/400/241 253/364/270 255/393/299
f 218/405/267 217/402/266 281/369/275 282/368/274
f 205/406/256 204/403/255 268/380/286 269/379/285
f 192/407/243 191/404/242 255/393/299 256/392/298
f 219/408/268 218/405/267 282/368/274 283/367/273
f 206/409/257 205/406/256 269/379/285 270/378/284
f 193/410/244 192/407/243 256/392/298 257/391/297
f 220/411/269 219/408/268 283/367/273 284/366/272
f 207/412/258 206/409/257 270/378/284 271/377/283
f 194/413/245 193/410/244 257/391/297 258/390/296
f 190/401/240 220/411/269 284/366/272 254/365/271
f 208/414/259 207/412/258 271/377/283 272/376/282
f 195/415/246 194/413/245 258/390/296 259/389/295
f 209/416/260 208/414/259 272/376/282 273/375/281
f 196/417/247 195/415/246 259/389/295 260/388/294
f 210/418/261 209/416/260 273/375/281 274/374/280
f 197/419/248 196/417/247 260/388/294 261/387/293
f 211/420/262 210/418/261 274/374/280 275/373/279
f 198/421/249 197/419/248 261/387/293 262/386/292
f 212/422/263 211/420/262 275/373/279 276/372/278
f 199/423/250 198/421/249 262/386/292 263/385/291
f 213/269/207 212/422/263 276/372/278 277/270/208
f 200/395/251 199/423/250 263/385/291 264/384/290
f 307/424/300 331/425/89 332/426/88 308/427/301
f 306/428/302 330/429/303 331/425/89 307/424/300
f 304/430/304 328/431/130 329/432/129 305/433/305
f 303/434/117 327/435/116 328/431/130 304/430/304
f 301/436/306 325/437/75 326/438/164 302/439/307
f 300/440/308 324/441/76 325/437/75 301/436/306
f 298/442/309 322/443/121 323/444/310 299/445/311
f 297/446/312 321/447/122 322/443/121 298/442/309
f 295/448/313 319/449/155 320/450/107 296/451/106
f 294/452/314 318/453/156 319/449/155 295/448/313
f 292/454/315 316/455/316 317/456/317 293/457/318
f 291/458/319 315/459/320 316/455/316 292/454/315
f 289/460/321 313/461/322 314/462/323 290/463/324
f 288/464/102 312/465/101 313/461/322 289/460/321
f 286/466/325 310/467/326 311/468/327 287/469/328
f 285/470/170 309/471/169 310/467/326 286/466/325
f 52/86/81 146/85/77 330/472/303 306/473/302
f 134/97/90 137/93/86 328/148/130 327/474/116
f 116/128/114 34/127/113 299/475/311 323/476/310
f 17/170/148 86/169/144 315/477/320 291/478/319
f 146/81/77 149/75/71 331/96/89 330/479/303
f 65/192/165 68/189/162 311/480/327 310/481/326
f 128/108/97 41/107/96 302/482/307 326/483/164
f 24/156/137 98/155/133 318/484/156 294/485/314
f 68/188/162 6/187/161 287/486/328 311/487/327
f 77/177/153 80/175/151 314/488/323 313/489/322
f 89/163/142 92/161/140 317/490/317 316/491/316
f 62/198/168 65/192/165 310/481/326 309/492/169
f 140/90/84 48/89/83 305/493/305 329/494/129
f 31/142/126 110/141/120 321/495/122 297/496/312
f 80/174/151 13/173/150 290/497/324 314/498/323
f 101/149/131 104/145/104 320/499/107 319/179/155
f 74/181/100 77/177/153 313/489/322 312/500/101
f 113/133/118 116/129/114 323/501/310 322/136/121
f 86/165/144 89/163/142 316/491/316 315/502/320
f 152/68/66 55/67/65 308/503/301 332/504/88
f 38/124/111 122/123/73 324/505/76 300/506/308
f 92/160/140 20/159/139 293/507/318 317/508/317
f 367/509/70 368/510/171 465/511/329 466/512/330
f 368/510/171 371/513/331 467/514/332 465/511/329
f 371/513/331 374/515/163 468/516/333 467/514/332
f 374/515/163 377/517/160 469/518/334 468/516/333
f 377/517/160 380/519/157 470/520/335 469/518/334
f 380/519/157 383/521/154 471/522/336 470/520/335
f 383/521/154 386/523/152 472/524/337 471/522/336
f 386/523/152 389/525/149 473/526/338 472/524/337
f 389/525/149 392/527/145 474/528/339 473/526/338
f 392/527/145 395/529/340 475/530/341 474/528/339
f 395/529/340 398/531/141 476/532/342 475/530/341
f 398/531/141 401/533/138 477/534/343 476/532/342
f 401/533/138 404/535/134 478/536/344 477/534/343
f 404/535/134 407/537/132 479/538/345 478/536/344
f 407/537/132 410/539/128 480/540/346 479/538/345
f 410/539/128 413/541/127 481/542/347 480/540/346
f 413/541/127 416/543/123 482/544/348 481/542/347
f 416/543/123 419/545/119 483/546/349 482/544/348
f 419/545/119 422/547/115 484/548/350 483/546/349
f 422/547/115 425/549/112 485/550/351 484/548/350
f 425/549/112 428/551/108 486/552/352 485/550/351
f 428/551/108 431/553/103 488/554/353 486/552/352
f 431/553/103 434/555/98 489/556/354 488/554/353
f 434/555/98 437/557/95 487/558/355 489/556/354
f 437/557/95 440/559/91 490/560/356 487/558/355
f 440/561/91 443/562/357 491/563/358 490/564/356
f 443/562/357 446/565/85 492/566/359 491/563/358
f 446/565/85 449/567/82 493/568/360 492/566/359
f 449/567/82 452/569/78 494/570/361 493/568/360
f 452/569/78 455/571/72 495/572/362 494/570/361
f 455/571/72 458/573/69 496/574/363 495/572/362
f 458/573/69 367/509/70 466/512/330 496/574/363
f 55/67/65 1/70/68 365/575/364 460/576/365
f 460/577/365 365/578/364 366/579/1 459/580/64
f 459/580/64 366/579/1 367/509/70 458/573/69
f 457/581/366 460/577/365 459/580/64 456/582/367
f 456/582/367 459/580/64 458/573/69 455/571/72
f 430/583/368 608/584/369 609/585/370 433/586/371
f 454/587/372 457/581/366 456/582/367 453/588/60
f 453/588/60 456/582/367 455/571/72 452/569/78
f 50/83/79 52/86/81 454/589/372 451/590/373
f 451/591/373 454/587/372 453/588/60 450/592/58
f 450/592/58 453/588/60 452/569/78 449/567/82
f 48/89/83 50/83/79 451/590/373 448/593/374
f 448/594/374 451/591/373 450/592/58 447/595/56
f 447/595/56 450/592/58 449/567/82 446/565/85
f 445/596/375 448/594/374 447/595/56 444/597/54
f 444/597/54 447/595/56 446/565/85 443/562/357
f 457/581/366 615/598/376 616/599/377 460/577/365
f 442/600/378 445/596/375 444/597/54 441/601/52
f 441/601/52 444/597/54 443/562/357 440/561/91
f 43/99/92 45/102/94 442/602/378 439/603/379
f 439/604/379 442/605/378 441/606/52 438/607/50
f 438/607/50 441/606/52 440/559/91 437/557/95
f 41/107/96 43/99/92 439/603/379 436/608/380
f 436/609/380 439/604/379 438/607/50 435/610/48
f 435/610/48 438/607/50 437/557/95 434/555/98
f 10/111/99 288/114/102 596/611/381 382/612/382
f 433/586/371 436/609/380 435/610/48 432/613/46
f 432/613/46 435/610/48 434/555/98 431/553/103
f 412/614/383 604/615/384 296/118/106 27/117/105
f 430/583/368 433/586/371 432/613/46 429/616/44
f 429/616/44 432/613/46 431/553/103 428/551/108
f 36/121/109 38/124/111 430/617/368 427/618/385
f 427/619/385 430/583/368 429/616/44 426/620/42
f 426/620/42 429/616/44 428/551/108 425/549/112
f 34/127/113 36/121/109 427/618/385 424/621/386
f 424/622/386 427/619/385 426/620/42 423/623/40
f 423/623/40 426/620/42 425/549/112 422/547/115
f 45/102/94 303/132/117 611/624/387 442/602/378
f 421/625/388 424/622/386 423/623/40 420/626/38
f 420/626/38 423/623/40 422/547/115 419/545/119
f 418/627/389 605/628/390 606/629/391 421/625/388
f 418/627/389 421/625/388 420/626/38 417/630/36
f 417/630/36 420/626/38 419/545/119 416/543/123
f 29/139/124 31/142/126 418/631/389 415/632/392
f 415/633/392 418/627/389 417/630/36 414/634/34
f 414/634/34 417/630/36 416/543/123 413/541/127
f 27/117/105 29/139/124 415/632/392 412/614/383
f 412/635/383 415/633/392 414/634/34 411/636/32
f 411/636/32 414/634/34 413/541/127 410/539/128
f 445/596/375 612/637/393 613/638/394 448/594/374
f 409/639/395 412/635/383 411/636/32 408/640/30
f 408/640/30 411/636/32 410/539/128 407/537/132
f 406/641/396 409/639/395 408/640/30 405/642/28
f 405/642/28 408/640/30 407/537/132 404/535/134
f 22/153/135 24/156/137 406/643/396 403/644/397
f 403/645/397 406/641/396 405/642/28 402/646/26
f 402/646/26 405/642/28 404/535/134 401/533/138
f 20/159/139 22/153/135 403/644/397 400/647/398
f 400/648/398 403/645/397 402/646/26 399/649/24
f 399/649/24 402/646/26 401/533/138 398/531/141
f 397/650/399 400/648/398 399/649/24 396/651/22
f 396/651/22 399/649/24 398/531/141 395/529/340
f 394/652/400 397/650/399 396/651/22 393/653/20
f 393/653/20 396/651/22 395/529/340 392/527/145
f 15/167/146 17/170/148 394/654/400 391/655/401
f 391/656/401 394/652/400 393/653/20 390/657/18
f 390/657/18 393/653/20 392/527/145 389/525/149
f 13/173/150 15/167/146 391/655/401 388/658/402
f 388/659/402 391/656/401 390/657/18 387/660/16
f 387/660/16 390/657/18 389/525/149 386/523/152
f 385/661/403 388/659/402 387/660/16 384/662/14
f 384/662/14 387/660/16 386/523/152 383/521/154
f 406/641/396 602/663/404 603/664/405 409/639/395
f 382/665/382 385/661/403 384/662/14 381/666/12
f 381/666/12 384/662/14 383/521/154 380/519/157
f 8/183/158 10/111/99 382/612/382 379/667/406
f 379/668/406 382/665/382 381/666/12 378/669/10
f 378/669/10 381/666/12 380/519/157 377/517/160
f 6/187/161 8/183/158 379/667/406 376/670/407
f 376/671/407 379/668/406 378/669/10 375/672/8
f 375/672/8 378/669/10 377/517/160 374/515/163
f 433/586/371 609/585/370 610/673/408 436/609/380
f 373/674/409 376/671/407 375/672/8 372/675/410
f 372/675/410 375/672/8 374/515/163 371/513/331
f 3/194/167 285/197/170 593/676/411 370/677/412
f 370/678/412 373/674/409 372/675/410 369/679/4
f 369/679/4 372/675/410 371/513/331 368/510/171
f 1/70/68 3/194/167 370/677/412 365/575/364
f 365/578/364 370/678/412 369/679/4 366/579/1
f 366/579/1 369/679/4 368/510/171 367/509/70
f 347/680/413 543/681/414 542/682/415 346/683/416
f 333/684/417 466/685/330 465/686/329 334/687/418
f 334/687/418 465/686/329 467/688/332 335/689/419
f 335/689/419 467/688/332 468/690/333 336/691/420
f 336/691/420 468/690/333 469/692/334 337/693/421
f 337/693/421 469/692/334 470/694/335 338/695/422
f 338/695/422 470/694/335 471/696/336 339/697/423
f 339/697/423 471/696/336 472/698/337 340/699/424
f 340/699/424 472/698/337 473/700/338 341/701/425
f 341/701/425 473/700/338 474/702/339 342/703/426
f 342/703/426 474/702/339 475/704/341 343/705/427
f 343/705/427 475/704/341 476/706/342 344/707/428
f 344/707/428 476/706/342 477/708/343 345/709/429
f 345/709/429 477/708/343 478/710/344 346/711/416
f 346/711/416 478/710/344 479/712/345 347/713/413
f 347/713/413 479/712/345 480/714/346 348/715/430
f 348/715/430 480/714/346 481/716/347 349/717/431
f 349/717/431 481/716/347 482/718/348 350/719/432
f 350/719/432 482/718/348 483/720/349 351/721/433
f 351/721/433 483/720/349 484/722/350 352/723/434
f 352/723/434 484/722/350 485/724/351 353/725/435
f 353/725/435 485/724/351 486/726/352 354/727/436
f 354/727/436 486/726/352 488/728/353 463/729/437
f 463/729/437 488/728/353 489/730/354 462/731/438
f 462/731/438 489/730/354 487/732/355 357/733/439
f 357/733/439 487/732/355 490/734/356 358/735/440
f 358/735/440 490/734/356 491/736/358 359/737/441
f 359/737/441 491/736/358 492/738/359 360/739/442
f 360/739/442 492/738/359 493/740/360 361/741/443
f 361/741/443 493/740/360 494/742/361 362/743/444
f 362/743/444 494/742/361 495/744/362 363/745/445
f 363/745/445 495/744/362 496/746/363 364/747/446
f 364/747/446 496/746/363 466/685/330 333/684/417
f 522/748/447 586/749/448 585/750/449 521/751/450
f 334/752/418 529/753/451 530/754/452 333/755/417
f 361/756/443 557/757/453 556/758/454 360/759/442
f 348/760/430 544/761/455 543/681/414 347/680/413
f 335/762/419 531/763/456 529/753/451 334/752/418
f 362/764/444 558/765/457 557/757/453 361/756/443
f 349/766/431 545/767/458 544/761/455 348/760/430
f 336/768/420 532/769/459 531/763/456 335/762/419
f 363/770/445 559/771/460 558/765/457 362/764/444
f 350/772/432 546/773/461 545/767/458 349/766/431
f 337/774/421 533/775/462 532/769/459 336/768/420
f 364/776/446 560/777/463 559/771/460 363/770/445
f 351/778/433 547/779/464 546/773/461 350/772/432
f 338/780/422 534/781/465 533/775/462 337/774/421
f 333/755/417 530/754/452 560/777/463 364/776/446
f 352/782/434 548/783/466 547/779/464 351/778/433
f 339/784/423 535/785/467 534/781/465 338/780/422
f 353/786/435 549/787/468 548/783/466 352/782/434
f 340/788/424 536/789/469 535/785/467 339/784/423
f 354/790/436 550/791/470 549/787/468 353/786/435
f 341/792/425 537/793/471 536/789/469 340/788/424
f 463/794/437 551/795/472 550/791/470 354/790/436
f 342/796/426 538/797/473 537/793/471 341/792/425
f 462/798/438 552/799/474 551/795/472 463/794/437
f 343/800/427 539/801/475 538/797/473 342/796/426
f 357/802/439 553/803/476 552/799/474 462/798/438
f 344/804/428 540/805/477 539/801/475 343/800/427
f 358/806/440 554/807/478 553/803/476 357/802/439
f 345/808/429 541/809/479 540/805/477 344/804/428
f 359/810/441 555/811/480 554/807/478 358/806/440
f 346/683/416 542/682/415 541/809/479 345/808/429
f 360/759/442 556/758/454 555/811/480 359/810/441
f 498/812/481 530/754/452 529/753/451 497/813/482
f 497/813/482 529/753/451 531/763/456 499/814/483
f 499/814/483 531/763/456 532/769/459 500/815/484
f 500/815/484 532/769/459 533/775/462 501/816/485
f 501/816/485 533/775/462 534/781/465 502/817/486
f 502/817/486 534/781/465 535/785/467 503/818/487
f 503/818/487 535/785/467 536/789/469 504/819/488
f 504/819/488 536/789/469 537/793/471 505/820/489
f 505/820/489 537/793/471 538/797/473 506/821/490
f 506/821/490 538/797/473 539/801/475 507/822/491
f 507/822/491 539/801/475 540/805/477 508/823/492
f 508/823/492 540/805/477 541/809/479 509/824/493
f 509/824/493 541/809/479 542/682/415 510/825/494
f 510/825/494 542/682/415 543/681/414 511/826/495
f 511/826/495 543/681/414 544/761/455 512/827/496
f 512/827/496 544/761/455 545/767/458 513/828/497
f 513/828/497 545/767/458 546/773/461 514/829/498
f 514/829/498 546/773/461 547/779/464 515/830/499
f 515/830/499 547/779/464 548/783/466 516/831/500
f 516/831/500 548/783/466 549/787/468 517/832/501
f 517/832/501 549/787/468 550/791/470 518/833/502
f 518/833/502 550/791/470 551/795/472 519/834/503
f 519/834/503 551/795/472 552/799/474 520/835/504
f 520/835/504 552/799/474 553/803/476 521/836/450
f 521/836/450 553/803/476 554/807/478 522/837/447
f 522/837/447 554/807/478 555/811/480 523/838/505
f 523/838/505 555/811/480 556/758/454 524/839/506
f 524/839/506 556/758/454 557/757/453 525/840/507
f 525/840/507 557/757/453 558/765/457 526/841/508
f 526/841/508 558/765/457 559/771/460 527/842/509
f 527/842/509 559/771/460 560/777/463 528/843/510
f 528/843/510 560/777/463 530/754/452 498/812/481
f 561/844/511 563/845/512 564/846/513 565/847/514 566/848/515 567/849/516 568/850/517 569/851/518 570/852/519 571/853/520 572/854/521 573/855/522 574/856/523 575/857/524 576/858/525 577/859/526 578/860/527 579/861/528 580/862/529 581/863/530 582/864/531 583/865/532 584/866/533 585/750/449 586/749/448 587/867/534 588/868/535 589/869/536 590/870/537 591/871/538 592/872/539 562/873/540
f 509/874/493 573/855/522 572/854/521 508/875/492
f 523/876/505 587/867/534 586/749/448 522/748/447
f 510/877/494 574/856/523 573/855/522 509/874/493
f 524/878/506 588/868/535 587/867/534 523/876/505
f 511/879/495 575/857/524 574/856/523 510/877/494
f 497/880/482 561/844/511 562/873/540 498/881/481
f 525/882/507 589/869/536 588/868/535 524/878/506
f 512/883/496 576/858/525 575/857/524 511/879/495
f 499/884/483 563/845/512 561/844/511 497/880/482
f 526/885/508 590/870/537 589/869/536 525/882/507
f 513/886/497 577/859/526 576/858/525 512/883/496
f 500/887/484 564/846/513 563/845/512 499/884/483
f 527/888/509 591/871/538 590/870/537 526/885/508
f 514/889/498 578/860/527 577/859/526 513/886/497
f 501/890/485 565/847/514 564/846/513 500/887/484
f 528/891/510 592/872/539 591/871/538 527/888/509
f 515/892/499 579/861/528 578/860/527 514/889/498
f 502/893/486 566/848/515 565/847/514 501/890/485
f 498/881/481 562/873/540 592/872/539 528/891/510
f 516/894/500 580/862/529 579/861/528 515/892/499
f 503/895/487 567/849/516 566/848/515 502/893/486
f 517/896/501 581/863/530 580/862/529 516/894/500
f 504/897/488 568/850/517 567/849/516 503/895/487
f 518/898/502 582/864/531 581/863/530 517/896/501
f 505/899/489 569/851/518 568/850/517 504/897/488
f 519/900/503 583/865/532 582/864/531 518/898/502
f 506/901/490 570/852/519 569/851/518 505/899/489
f 520/902/504 584/866/533 583/865/532 519/900/503
f 507/903/491 571/853/520 570/852/519 506/901/490
f 521/751/450 585/750/449 584/866/533 520/902/504
f 508/875/492 572/854/521 571/853/520 507/903/491
f 307/424/300 308/427/301 616/904/377 615/905/376
f 306/428/302 307/424/300 615/905/376 614/906/541
f 304/430/304 305/433/305 613/907/394 612/908/393
f 303/434/117 304/430/304 612/908/393 611/909/387
f 301/436/306 302/439/307 610/910/408 609/911/370
f 300/440/308 301/436/306 609/911/370 608/912/369
f 298/442/309 299/445/311 607/913/542 606/914/391
f 297/446/312 298/442/309 606/914/391 605/915/390
f 295/448/313 296/451/106 604/916/384 603/917/405
f 294/452/314 295/448/313 603/917/405 602/918/404
f 292/454/315 293/457/318 601/919/543 600/920/544
f 291/458/319 292/454/315 600/920/544 599/921/545
f 289/460/321 290/463/324 598/922/546 597/923/547
f 288/464/102 289/460/321 597/923/547 596/924/381
f 286/466/325 287/469/328 595/925/548 594/926/549
f 285/470/170 286/466/325 594/926/549 593/927/411
f 52/86/81 306/473/302 614/928/541 454/589/372
f 442/600/378 611/929/387 612/637/393 445/596/375
f 424/621/386 607/930/542 299/475/311 34/127/113
f 17/170/148 291/478/319 599/931/545 394/654/400
f 454/587/372 614/932/541 615/598/376 457/581/366
f 373/674/409 594/933/549 595/934/548 376/671/407
f 436/608/380 610/935/408 302/482/307 41/107/96
f 24/156/137 294/485/314 602/936/404 406/643/396
f 376/670/407 595/937/548 287/486/328 6/187/161
f 385/661/403 597/938/547 598/939/546 388/659/402
f 397/650/399 600/940/544 601/941/543 400/648/398
f 370/678/412 593/942/411 594/933/549 373/674/409
f 448/593/374 613/943/394 305/493/305 48/89/83
f 31/142/126 297/496/312 605/944/390 418/631/389
f 388/658/402 598/945/546 290/497/324 13/173/150
f 409/639/395 603/664/405 604/946/384 412/635/383
f 382/665/382 596/947/381 597/938/547 385/661/403
f 421/625/388 606/629/391 607/948/542 424/622/386
f 394/652/400 599/949/545 600/940/544 397/650/399
f 460/576/365 616/950/377 308/503/301 55/67/65
f 38/124/111 300/506/308 608/951/369 430/617/368
f 400/647/398 601/952/543 293/507/318 20/159/139
