# Blender 4.5.4 LTS
# www.blender.org
mtllib Key.mtl
o Torus
v 1.250000 4.619006 0.000000
v 1.176777 4.619006 0.176777
v 1.000000 4.619006 0.250000
v 0.823223 4.619006 0.176777
v 0.750000 4.619006 0.000000
v 0.823223 4.619006 -0.176777
v 1.000000 4.619006 -0.250000
v 1.176777 4.619006 -0.176777
v 0.625000 5.701538 0.000000
v 0.588388 5.638124 0.176777
v 0.500000 5.485031 0.250000
v 0.411612 5.331938 0.176777
v 0.375000 5.268525 0.000000
v 0.411612 5.331938 -0.176777
v 0.500000 5.485031 -0.250000
v 0.588388 5.638124 -0.176777
v -0.625000 5.701538 0.000000
v -0.588388 5.638124 0.176777
v -0.500000 5.485031 0.250000
v -0.411612 5.331938 0.176777
v -0.375000 5.268525 0.000000
v -0.411612 5.331938 -0.176777
v -0.500000 5.485031 -0.250000
v -0.588388 5.638124 -0.176777
v -1.250000 4.619006 0.000000
v -1.176777 4.619006 0.176777
v -1.000000 4.619006 0.250000
v -0.823223 4.619006 0.176777
v -0.750000 4.619006 0.000000
v -0.823223 4.619006 -0.176777
v -1.000000 4.619006 -0.250000
v -1.176777 4.619006 -0.176777
v -0.625000 3.536474 -0.000000
v -0.588388 3.599887 0.176777
v -0.500000 3.752980 0.250000
v -0.411612 3.906073 0.176777
v -0.375000 3.969486 -0.000000
v -0.411612 3.906073 -0.176777
v -0.500000 3.752980 -0.250000
v -0.588388 3.599887 -0.176777
v 0.625000 3.536474 -0.000000
v 0.588388 3.599887 0.176777
v 0.500000 3.752980 0.250000
v 0.411612 3.906073 0.176777
v 0.375000 3.969487 -0.000000
v 0.411612 3.906073 -0.176777
v 0.500000 3.752980 -0.250000
v 0.588388 3.599887 -0.176777
v 0.000000 3.599887 0.176777
v 0.000000 3.752980 0.250000
v 0.000000 3.906073 0.176777
v 0.000000 3.969487 -0.000000
v 0.000000 3.906073 -0.176777
v 0.000000 3.752980 -0.250000
v 0.000000 3.599887 -0.176777
v 0.175383 3.536474 -0.000000
v 0.165109 3.599887 0.176777
v 0.140306 3.752980 0.250000
v 0.115503 3.906073 0.176777
v 0.105230 3.969487 -0.000000
v 0.115503 3.906073 -0.176777
v 0.140306 3.752980 -0.250000
v 0.165109 3.599887 -0.176777
v -0.174632 3.536474 -0.000000
v -0.164403 3.599887 0.176777
v -0.139706 3.752980 0.250000
v -0.115009 3.906073 0.176777
v -0.104779 3.969487 -0.000000
v -0.115009 3.906073 -0.176777
v -0.139706 3.752980 -0.250000
v -0.164403 3.599887 -0.176777
v 0.000039 3.376535 0.148033
v 0.000039 3.376535 -0.148033
v 0.146905 3.388726 -0.000000
v 0.138302 3.376535 0.148033
v 0.138302 3.376535 -0.148033
v -0.146198 3.388726 -0.000000
v -0.137632 3.376535 0.148033
v -0.137632 3.376535 -0.148033
v 0.003181 0.619589 -0.000059
v 0.001600 0.619592 0.148033
v -0.000958 0.619081 -0.148545
v 0.145908 0.617999 -0.000000
v 0.137305 0.619416 0.148033
v 0.137305 0.619946 -0.148033
v -0.145664 0.618488 -0.000000
v -0.149882 0.619592 0.148033
v -0.138629 0.619081 -0.149056
v 0.139084 0.820130 0.118675
v -0.145697 0.790723 -0.000000
v -0.138567 0.790521 -0.148993
v -0.000896 0.790521 -0.148513
v 0.145990 0.819672 0.000049
v 0.139084 0.820529 -0.118676
v -0.149120 0.791000 0.148033
v 0.001503 0.791000 0.148033
v -0.145744 1.036114 -0.000000
v -0.138478 1.034779 -0.148902
v 0.146053 1.006291 -0.000045
v 0.001365 1.035213 0.148033
v 0.139151 1.005782 0.118675
v -0.000807 1.034779 -0.148468
v 0.139151 1.006144 -0.118676
v -0.148035 1.035213 0.148033
v 0.137455 1.035064 0.148033
v 0.137367 0.790835 0.148033
v 0.137455 1.035514 -0.148033
v 0.137367 0.791333 -0.148033
v 0.145970 0.790265 -0.000000
v 0.146058 1.035698 -0.000000
v 0.600951 0.819969 0.118676
v 0.607858 0.819512 0.000049
v 0.600951 0.820368 -0.118675
v 0.607920 1.006130 -0.000045
v 0.601018 1.005621 0.118676
v 0.601018 1.005983 -0.118675
v 0.272327 1.005903 0.079752
v 0.276966 1.006239 -0.000046
v 0.231007 0.820497 -0.118676
v 0.237914 0.819640 0.000049
v 0.231007 0.820098 0.118675
v 0.272329 1.006146 -0.079752
v 0.483972 1.005830 0.079752
v 0.520632 0.820396 -0.118675
v 0.520632 0.819997 0.118675
v 0.527601 1.006158 -0.000045
v 0.527538 0.819540 0.000049
v 0.483974 1.006073 -0.079751
v 0.520699 1.006011 -0.118675
v 0.231075 1.006112 -0.118676
v 0.237976 1.006259 -0.000045
v 0.231075 1.005750 0.118675
v 0.520699 1.005649 0.118675
v 0.488611 1.006178 -0.000044
v 0.272404 1.247360 0.080119
v 0.277043 1.247696 0.000322
v 0.272406 1.247603 -0.079384
v 0.484049 1.247286 0.080119
v 0.484051 1.247529 -0.079384
v 0.488688 1.247634 0.000324
vn 0.8152 0.4706 0.3377
vn 0.3737 0.2157 0.9021
vn -0.3737 -0.2157 0.9021
vn -0.8152 -0.4706 0.3377
vn -0.8152 -0.4706 -0.3377
vn -0.3737 -0.2157 -0.9021
vn 0.3737 0.2157 -0.9021
vn 0.8152 0.4706 -0.3377
vn -0.0000 0.9413 0.3377
vn -0.0000 0.4315 0.9021
vn -0.0000 -0.4315 0.9021
vn -0.0000 -0.9413 0.3377
vn -0.0000 -0.9413 -0.3377
vn -0.0000 -0.4315 -0.9021
vn -0.0000 0.4315 -0.9021
vn -0.0000 0.9413 -0.3377
vn -0.8152 0.4706 0.3377
vn -0.3737 0.2157 0.9021
vn 0.3737 -0.2157 0.9021
vn 0.8152 -0.4706 0.3377
vn 0.8152 -0.4706 -0.3377
vn 0.3737 -0.2157 -0.9021
vn -0.3737 0.2157 -0.9021
vn -0.8152 0.4706 -0.3377
vn -0.0000 -0.1276 0.9918
vn -0.0000 -0.1276 -0.9918
vn -0.9849 -0.1528 -0.0811
vn 0.0036 0.0001 -1.0000
vn 0.9983 -0.0004 0.0580
vn -0.9989 0.0001 -0.0475
vn 0.0036 0.0003 -1.0000
vn 0.9849 -0.1530 -0.0814
vn 0.9849 -0.1530 0.0814
vn -0.9849 -0.1528 0.0811
vn 0.0038 -1.0000 -0.0002
vn 0.0037 -1.0000 0.0038
vn -0.0026 -1.0000 -0.0047
vn -0.0063 -1.0000 0.0046
vn -0.0000 -0.0000 1.0000
vn -0.9997 0.0021 -0.0258
vn 0.9983 -0.0004 -0.0580
vn -0.0003 -1.0000 -0.0072
vn -0.9998 0.0021 -0.0193
vn 0.0033 0.0003 -1.0000
vn -0.9988 0.0001 -0.0483
vn 0.0003 1.0000 0.0043
vn 0.0033 0.0001 -1.0000
vn 0.0016 0.0001 -1.0000
vn -0.9986 0.0001 -0.0532
vn 0.0016 0.0003 -1.0000
vn -0.9998 0.0021 0.0213
vn 0.9983 -0.0005 -0.0580
vn 0.9983 -0.0005 0.0581
vn 0.9983 -0.0003 0.0580
vn 0.9983 -0.0002 -0.0580
vn 0.9983 -0.0004 -0.0581
vn 0.9983 -0.0003 0.0581
vn 0.0003 1.0000 -0.0013
vn -0.0003 -1.0000 0.0038
vn -0.0000 -0.0000 -1.0000
vn -0.9983 0.0004 -0.0580
vn 0.9983 -0.0002 -0.0581
vn 0.0004 1.0000 -0.0012
vn 0.0004 1.0000 0.0043
vn 0.0004 1.0000 -0.0013
vn -0.0000 0.0015 -1.0000
vn -0.0000 -0.0015 1.0000
vn -0.9983 0.0002 0.0581
vt 0.500000 0.500000
vt 0.666667 0.500000
vt 0.666667 0.625000
vt 0.500000 0.625000
vt 0.666667 0.750000
vt 0.500000 0.750000
vt 0.666667 0.875000
vt 0.500000 0.875000
vt 0.666667 1.000000
vt 0.500000 1.000000
vt 0.500000 0.000000
vt 0.666667 0.000000
vt 0.666667 0.125000
vt 0.500000 0.125000
vt 0.666667 0.250000
vt 0.500000 0.250000
vt 0.666667 0.375000
vt 0.500000 0.375000
vt 0.833333 0.500000
vt 0.833333 0.625000
vt 0.833333 0.750000
vt 0.833333 0.875000
vt 0.833333 1.000000
vt 0.833333 0.000000
vt 0.833333 0.125000
vt 0.833333 0.250000
vt 0.833333 0.375000
vt 1.000000 0.500000
vt 1.000000 0.625000
vt 1.000000 0.750000
vt 1.000000 0.875000
vt 1.000000 1.000000
vt 1.000000 0.000000
vt 1.000000 0.125000
vt 1.000000 0.250000
vt 1.000000 0.375000
vt -0.000000 0.500000
vt 0.166667 0.500000
vt 0.166667 0.625000
vt -0.000000 0.625000
vt 0.166667 0.750000
vt -0.000000 0.750000
vt 0.166667 0.875000
vt -0.000000 0.875000
vt 0.166667 1.000000
vt -0.000000 1.000000
vt -0.000000 0.000000
vt 0.166667 0.000000
vt 0.166667 0.125000
vt -0.000000 0.125000
vt 0.166667 0.250000
vt -0.000000 0.250000
vt 0.166667 0.375000
vt -0.000000 0.375000
vt 0.273384 0.500000
vt 0.333333 0.500000
vt 0.333333 0.625000
vt 0.273384 0.625000
vt 0.333333 0.750000
vt 0.273384 0.750000
vt 0.333333 0.875000
vt 0.273384 0.875000
vt 0.333333 1.000000
vt 0.273384 1.000000
vt 0.273384 0.000000
vt 0.333333 0.000000
vt 0.333333 0.125000
vt 0.273384 0.125000
vt 0.333333 0.250000
vt 0.273384 0.250000
vt 0.333333 0.375000
vt 0.273384 0.375000
vt 0.250000 0.625000
vt 0.226716 0.250000
vt 0.250000 0.250000
vt 0.250000 0.375000
vt 0.226716 0.375000
vt 0.226716 0.125000
vt 0.250000 0.125000
vt 0.226716 0.000000
vt 0.250000 0.000000
vt 0.226716 0.875000
vt 0.250000 0.875000
vt 0.250000 1.000000
vt 0.226716 1.000000
vt 0.226716 0.750000
vt 0.250000 0.750000
vt 0.226716 0.625000
vt 0.226716 0.500000
vt 0.273384 0.375000
vt 0.273384 0.500000
vt 0.273384 0.625000
vt 0.226716 0.500000
vt 0.226716 0.375000
vt 0.226716 0.500000
vt 0.250000 0.500000
vt 0.226716 0.625000
vt 0.273384 0.500041
vt 0.273384 0.399790
vt 0.226716 0.500000
vt 0.226716 0.375000
vt 0.273384 0.499963
vt 0.273384 0.600210
vt 0.273384 0.499963
vt 0.273384 0.375000
vt 0.273384 0.500000
vt 0.273384 0.600210
vt 0.273384 0.399790
vt 0.273384 0.600210
vt 0.273384 0.399790
vt 0.273384 0.499963
vt 0.273384 0.499962
vt 0.273384 0.567343
vt 0.273384 0.499963
vt 0.273384 0.432657
s 0
usemtl Material.001
f 1/1/1 9/2/1 10/3/1 2/4/1
f 2/4/2 10/3/2 11/5/2 3/6/2
f 3/6/3 11/5/3 12/7/3 4/8/3
f 4/8/4 12/7/4 13/9/4 5/10/4
f 5/11/5 13/12/5 14/13/5 6/14/5
f 6/14/6 14/13/6 15/15/6 7/16/6
f 7/16/7 15/15/7 16/17/7 8/18/7
f 8/18/8 16/17/8 9/2/8 1/1/8
f 9/2/9 17/19/9 18/20/9 10/3/9
f 10/3/10 18/20/10 19/21/10 11/5/10
f 11/5/11 19/21/11 20/22/11 12/7/11
f 12/7/12 20/22/12 21/23/12 13/9/12
f 13/12/13 21/24/13 22/25/13 14/13/13
f 14/13/14 22/25/14 23/26/14 15/15/14
f 15/15/15 23/26/15 24/27/15 16/17/15
f 16/17/16 24/27/16 17/19/16 9/2/16
f 17/19/17 25/28/17 26/29/17 18/20/17
f 18/20/18 26/29/18 27/30/18 19/21/18
f 19/21/19 27/30/19 28/31/19 20/22/19
f 20/22/20 28/31/20 29/32/20 21/23/20
f 21/24/21 29/33/21 30/34/21 22/25/21
f 22/25/22 30/34/22 31/35/22 23/26/22
f 23/26/23 31/35/23 32/36/23 24/27/23
f 24/27/24 32/36/24 25/28/24 17/19/24
f 25/37/4 33/38/4 34/39/4 26/40/4
f 26/40/3 34/39/3 35/41/3 27/42/3
f 27/42/2 35/41/2 36/43/2 28/44/2
f 28/44/1 36/43/1 37/45/1 29/46/1
f 29/47/8 37/48/8 38/49/8 30/50/8
f 30/50/7 38/49/7 39/51/7 31/52/7
f 31/52/6 39/51/6 40/53/6 32/54/6
f 32/54/5 40/53/5 33/38/5 25/37/5
f 56/55/12 41/56/12 42/57/12 57/58/12
f 57/58/11 42/57/11 43/59/11 58/60/11
f 58/60/10 43/59/10 44/61/10 59/62/10
f 59/62/9 44/61/9 45/63/9 60/64/9
f 60/65/16 45/66/16 46/67/16 61/68/16
f 61/68/15 46/67/15 47/69/15 62/70/15
f 62/70/14 47/69/14 48/71/14 63/72/14
f 63/72/13 48/71/13 41/56/13 56/55/13
f 41/56/20 1/1/20 2/4/20 42/57/20
f 42/57/19 2/4/19 3/6/19 43/59/19
f 43/59/18 3/6/18 4/8/18 44/61/18
f 44/61/17 4/8/17 5/10/17 45/63/17
f 45/66/24 5/11/24 6/14/24 46/67/24
f 46/67/23 6/14/23 7/16/23 47/69/23
f 47/69/22 7/16/22 8/18/22 48/71/22
f 48/71/21 8/18/21 1/1/21 41/56/21
f 57/58/25 49/73/25 72/73/25 75/58/25
f 70/74/14 54/75/14 55/76/14 71/77/14
f 69/78/15 53/79/15 54/75/15 70/74/15
f 68/80/16 52/81/16 53/79/16 69/78/16
f 67/82/9 51/83/9 52/84/9 68/85/9
f 66/86/10 50/87/10 51/83/10 67/82/10
f 65/88/11 49/73/11 50/87/11 66/86/11
f 55/76/26 63/72/26 76/72/26 73/76/26
f 49/73/25 65/88/25 78/88/25 72/73/25
f 54/75/14 62/70/14 63/72/14 55/76/14
f 53/79/15 61/68/15 62/70/15 54/75/15
f 52/81/16 60/65/16 61/68/16 53/79/16
f 51/83/9 59/62/9 60/64/9 52/84/9
f 50/87/10 58/60/10 59/62/10 51/83/10
f 49/73/11 57/58/11 58/60/11 50/87/11
f 64/89/27 71/77/27 79/77/27 77/89/27
f 33/38/12 64/89/12 65/88/12 34/39/12
f 34/39/11 65/88/11 66/86/11 35/41/11
f 35/41/10 66/86/10 67/82/10 36/43/10
f 36/43/9 67/82/9 68/85/9 37/45/9
f 37/48/16 68/80/16 69/78/16 38/49/16
f 38/49/15 69/78/15 70/74/15 39/51/15
f 39/51/14 70/74/14 71/77/14 40/53/14
f 40/53/13 71/77/13 64/89/13 33/38/13
f 92/76/28 108/90/28 85/72/28 82/76/28
f 109/91/29 106/92/29 84/58/29 83/55/29
f 90/93/30 91/94/30 88/77/30 86/95/30
f 91/94/31 92/76/31 82/76/31 88/77/31
f 63/72/32 56/55/32 74/55/32 76/72/32
f 56/55/33 57/58/33 75/58/33 74/55/33
f 65/88/34 64/89/34 77/89/34 78/88/34
f 71/77/26 55/76/26 73/76/26 79/77/26
f 88/77/35 82/76/35 80/96/35 86/95/35
f 86/95/36 80/96/36 81/73/36 87/88/36
f 82/76/37 85/72/37 83/55/37 80/96/37
f 80/96/38 83/55/38 84/58/38 81/73/38
f 96/73/39 95/97/39 87/88/39 81/73/39
f 95/97/40 90/93/40 86/95/40 87/88/40
f 108/90/41 109/91/41 83/55/41 85/72/41
f 106/92/39 96/73/39 81/73/39 84/58/39
f 105/92/39 100/73/39 96/73/39 106/92/39
f 127/98/42 124/99/42 113/99/42 112/98/42
f 104/97/43 97/100/43 90/93/43 95/97/43
f 100/73/39 104/97/39 95/97/39 96/73/39
f 98/101/44 102/76/44 92/76/44 91/94/44
f 97/100/45 98/101/45 91/94/45 90/93/45
f 126/102/46 133/103/46 115/103/46 114/104/46
f 102/76/47 107/105/47 108/90/47 92/76/47
f 73/76/48 76/72/48 107/105/48 102/76/48
f 74/55/29 75/58/29 105/92/29 110/106/29
f 77/89/49 79/77/49 98/101/49 97/100/49
f 79/77/50 73/76/50 102/76/50 98/101/50
f 72/73/39 78/88/39 104/97/39 100/73/39
f 78/88/51 77/89/51 97/100/51 104/97/51
f 76/72/41 74/55/41 110/106/41 107/105/41
f 75/58/39 72/73/39 100/73/39 105/92/39
f 89/107/29 101/103/29 105/92/29 106/92/29
f 103/108/41 94/99/41 108/90/41 107/105/41
f 94/99/52 93/98/52 109/91/52 108/90/52
f 93/98/53 89/107/53 106/92/53 109/91/53
f 101/103/54 99/104/54 110/106/54 105/92/54
f 99/104/55 103/108/55 107/105/55 110/106/55
f 116/108/56 114/104/56 112/98/56 113/99/56
f 114/104/57 115/103/57 111/107/57 112/98/57
f 133/103/39 125/109/39 111/107/39 115/103/39
f 129/110/58 126/102/58 114/104/58 116/108/58
f 125/109/59 127/98/59 112/98/59 111/107/59
f 124/99/60 129/110/60 116/108/60 113/99/60
f 94/99/60 103/108/60 130/110/60 119/99/60
f 89/107/59 93/98/59 120/98/59 121/109/59
f 103/108/58 99/104/58 131/111/58 130/110/58
f 101/103/39 89/107/39 121/109/39 132/103/39
f 99/104/46 101/103/46 132/103/46 131/111/46
f 93/98/42 94/99/42 119/99/42 120/98/42
f 119/99/60 130/110/60 129/110/60 124/99/60
f 121/109/59 120/98/59 127/98/59 125/109/59
f 118/112/61 117/113/61 135/113/61 136/112/61
f 132/103/39 121/109/39 125/109/39 133/103/39
f 134/114/62 128/115/62 139/115/62 140/114/62
f 120/98/42 119/99/42 124/99/42 127/98/42
f 122/115/58 128/115/58 129/110/58 130/110/58
f 118/112/63 122/115/63 130/110/63 131/111/63
f 117/113/64 118/112/64 131/111/64 132/103/64
f 123/113/46 117/113/46 132/103/46 133/103/46
f 128/115/65 134/114/65 126/102/65 129/110/65
f 134/114/64 123/113/64 133/103/64 126/102/64
f 137/115/58 136/112/58 140/114/58 139/115/58
f 136/112/46 135/113/46 138/113/46 140/114/46
f 128/115/66 122/115/66 137/115/66 139/115/66
f 123/113/29 134/114/29 140/114/29 138/113/29
f 117/113/67 123/113/67 138/113/67 135/113/67
f 122/115/68 118/112/68 136/112/68 137/115/68
